<?xml version="1.0" encoding="utf-8"?>
<!-- Generator: Adobe Illustrator 20.1.0, SVG Export Plug-In . SVG Version: 6.00 Build 0)  -->
<!DOCTYPE svg PUBLIC "-//W3C//DTD SVG 1.1//EN" "http://www.w3.org/Graphics/SVG/1.1/DTD/svg11.dtd">
<svg version="1.1" id="Layer_1" xmlns="http://www.w3.org/2000/svg" xmlns:xlink="http://www.w3.org/1999/xlink" x="0px" y="0px"
	 viewBox="0 0 54 54" style="enable-background:new 0 0 54 54;" xml:space="preserve">
<style type="text/css">
	.st0{fill:#F26A6D;}
</style>
<g>
	<g>
		<path class="st0" d="M26.9,5.3L26.9,5.3c0.3-0.1,0.6-0.4,0.6-0.8l0.3-3.2c0-0.4-0.1-0.7-0.4-0.9l0,0l1.6,0.2l-0.5,4.9L26.9,5.3z
			 M30.7,3.6c0.2-1.4-0.4-2.6-1.2-3l0,0c0.1,0,0.2,0,0.3,0c1.1,0.1,2.3,1,2.1,2.7c-0.2,1.7-1.6,2.3-2.7,2.2c-0.1,0-0.2,0-0.3,0l0,0
			C29.9,5.5,30.5,5,30.7,3.6z"/>
	</g>
	<g>
		<path class="st0" d="M31.8,5.8c0.4,0,0.6-0.3,0.8-0.6l1-3c0.1-0.4,0-0.7-0.2-1l0,0l2,0.7l0,0c-0.4,0-0.6,0.3-0.8,0.6l-1.3,3.8
			L31.8,5.8L31.8,5.8z M36.3,5.3L36.3,5.3l-0.7,1.8l-1.9-0.6l0,0C34.8,6.8,35.5,6.3,36.3,5.3z"/>
	</g>
	<g>
		<path class="st0" d="M37.9,8.3L37.9,8.3l-1.9-1l0,0c0.4,0,0.7-0.2,0.9-0.5l0.6-1.2l0-1.8c0-0.7,0-1.1-0.2-1.3l0,0l2,1l0,0
			c-0.4-0.1-0.7,0.1-0.7,0.6L38.4,6l-0.7,1.3C37.6,7.6,37.6,8,37.9,8.3z M41,4.4L41,4.4c-0.2,0.1-0.7,0.3-1.2,0.6l0,0
			C40.2,4.7,40.4,4.3,40,4l0,0L41,4.4z"/>
	</g>
	<g>
		<path class="st0" d="M42.4,5.1L42.4,5.1l-4.4,4L38,9.1L42.4,5.1z"/>
	</g>
	<g>
		<path class="st0" d="M41.5,7.7c1-1.1,2.3-1,3.2-0.5l0,0c-0.4-0.1-1.1,0.1-1.9,1c-0.9,1-1.4,2.4-1.1,3l0,0
			C40.8,10.5,40.3,9,41.5,7.7z M43.8,10.5c1-1,1.4-2.4,1.1-3l0,0c0.7,0.7,1.2,2.2,0.1,3.5c-1,1.1-2.3,1-3.2,0.5l0,0
			C42.2,11.5,43,11.3,43.8,10.5z"/>
	</g>
	<g>
		<path class="st0" d="M43.4,12.9c0.3,0.2,0.7,0.2,1-0.1l2.6-1.9c0.3-0.2,0.4-0.6,0.4-0.9l0,0l0.9,1.3L45,13.7
			c-0.3,0.2-0.4,0.6-0.4,0.9l0,0L43.4,12.9L43.4,12.9z M47.9,13.1c0.5-0.4,0.8-1,0.7-1.4l0,0l0.2,0.3c0.4,0.6,0.5,1.5-0.2,2
			c-0.6,0.4-1.4,0.3-2.1-0.7l-0.1-0.1l0,0C46.7,13.5,47.3,13.5,47.9,13.1z"/>
	</g>
	<g>
		<path class="st0" d="M46.2,16.9c-0.1-0.3-0.3-0.4-0.4-0.5l1.7-0.8l0,0c-0.5,0.5-1.2,1.4-1,2.3l0,0C46.4,17.6,46.3,17.2,46.2,16.9z
			 M47.8,18.6c0.5-0.2,0.4-0.9,0.3-1.8c-0.1-1.2,0.2-1.6,0.8-1.9c0.9-0.4,1.6,0.1,2,0.7l0,0c-0.3-0.4-0.7-0.6-1.2-0.3
			c-0.5,0.2-0.4,0.7-0.4,1.7c0.1,1,0,1.7-0.7,2c-0.9,0.4-1.6-0.1-1.9-0.6l0,0C47,18.6,47.4,18.8,47.8,18.6z M51.4,16.9
			c0,0.1,0.1,0.2,0.2,0.3L50.2,18l0,0c0.6-0.8,1-1.5,0.9-2l0,0C51.3,16.4,51.3,16.6,51.4,16.9z"/>
	</g>
	<g>
		<path class="st0" d="M47.8,20.9L47.8,20.9c0.2,0.3,0.6,0.4,0.9,0.4l3.1-0.6c0.4-0.1,0.6-0.3,0.7-0.7l0,0l0.3,1.6l-4.8,0.9
			L47.8,20.9z M50.4,24c1.4-0.2,2.4-1.1,2.5-2l0,0c0,0.1,0,0.2,0.1,0.3c0.2,1.1-0.3,2.5-2,2.8c-1.7,0.3-2.7-0.9-2.9-1.9
			c0-0.1,0-0.2,0-0.3l0,0C48.4,23.7,49.1,24.2,50.4,24z"/>
	</g>
	<g>
		<path class="st0" d="M50.1,29.6L50.1,29.6l-1.6-0.1l0-1.8l0,0C48.6,28.7,48.9,29.1,50.1,29.6z M48.6,27.2l0-1.6h0
			c0.1,0.3,0.5,0.5,0.8,0.5l3.2,0.1c0.4,0,0.7-0.2,0.9-0.5l0,0l0,1.6L48.6,27.2z M52,28.5L52,28.5l-1.8,0v0c0.5-0.1,0.9-0.4,1-0.7
			l0,0C51.3,28.1,51.6,28.3,52,28.5z M53.4,29.4l-1.5,0.1v0c1.2-0.3,1.4-0.8,1.5-1.7l0,0L53.4,29.4z"/>
	</g>
	<g>
		<path class="st0" d="M48.7,32.8c0.5,0.1,0.9-0.4,1.4-1.3c0.6-1,1.1-1.2,1.8-1.1c1,0.2,1.2,1.1,1.2,1.7l0,0c0-0.5-0.2-0.9-0.7-1
			c-0.5-0.1-0.8,0.3-1.3,1.1c-0.5,0.8-1,1.3-1.8,1.2c-1-0.2-1.2-1-1.2-1.6l0,0C48,32.4,48.2,32.7,48.7,32.8z M48.4,30.5
			c0.1-0.3,0-0.5,0-0.6l1.9,0.4l0,0c-0.7,0.1-1.8,0.4-2.2,1.2l0,0C48.1,31.2,48.3,30.8,48.4,30.5z M52.6,33.7c0,0.1,0,0.2,0,0.3
			l-1.6-0.3l0,0c1-0.3,1.7-0.6,2-1.1l0,0C52.8,33.1,52.7,33.4,52.6,33.7z"/>
	</g>
	<g>
		<path class="st0" d="M47.6,33.5c0,0.4,0.3,0.7,0.6,0.8l3,1.1c0.3,0.1,0.7,0,1-0.2l0,0l-0.7,2l0,0c0-0.4-0.3-0.6-0.6-0.8l-3-1.1
			c-0.3-0.1-0.7-0.1-1,0.2l0,0L47.6,33.5L47.6,33.5z"/>
	</g>
	<g>
		<path class="st0" d="M47.7,39.2L47.7,39.2l-1,1.8l0,0c0-0.4-0.2-0.6-0.5-0.8l-1-0.6c0-0.3,0-0.8,0.1-1.1l1.4,0.8
			C47.1,39.4,47.5,39.4,47.7,39.2z M45.5,38c0.6-1.1,2-1.9,3.5-1c1.3,0.7,1.5,2.1,1.1,3.1l0,0c0-0.6-0.3-1.2-1.3-1.8
			c-1.2-0.7-2.9-0.7-3.3-0.1l0,0C45.5,38.1,45.5,38,45.5,38z M49.3,41.4c-0.1,0.1-0.1,0.3-0.2,0.4L47.6,41l0,0
			c1.1,0,1.9-0.2,2.3-0.6l0,0C49.8,40.7,49.5,41.1,49.3,41.4z"/>
	</g>
	<g>
		<path class="st0" d="M47.1,43.1c0.5,0,0.9,0,1.1-0.1l0,0l-1.1,1.2l-4.2-0.3l-1.3-1.1l0,0L47.1,43.1z M43.7,40.7L43.7,40.7l0.8-0.9
			l0,0c-0.1,0.3,0,0.8,0.4,1.1l0,0C44.5,40.6,44.1,40.5,43.7,40.7z M45.8,45.6L45.8,45.6L45,46.5l0,0c0.1-0.3,0-0.8-0.4-1.1l0,0
			C45,45.7,45.5,45.8,45.8,45.6z"/>
	</g>
	<g>
		<path class="st0" d="M38.3,46.5c0.3,0.4,0.9,0.3,1.9,0.1c1.1-0.3,1.6-0.1,2,0.5c0.5,0.8,0.1,1.6-0.4,2l0,0
			c0.3-0.3,0.5-0.8,0.2-1.2c-0.3-0.4-0.8-0.3-1.7-0.1C39.2,48,38.5,48,38,47.3c-0.6-0.9-0.2-1.6,0.3-2l0,0
			C38.1,45.6,38,46.1,38.3,46.5z M39.7,44.6c0.3-0.2,0.4-0.3,0.4-0.4l1.1,1.6l0,0c-0.6-0.4-1.6-1-2.5-0.7l0,0
			C39,44.9,39.4,44.8,39.7,44.6z M40.4,49.8c-0.1,0.1-0.2,0.1-0.2,0.2l-1-1.3l0,0c0.9,0.5,1.6,0.8,2.1,0.6l0,0
			C41,49.6,40.7,49.6,40.4,49.8z"/>
	</g>
	<g>
		<path class="st0" d="M35,48c-0.1-0.3-0.4-0.6-0.8-0.6l0,0l2-0.8l0,0c-0.2,0.3-0.3,0.6-0.2,1l1.5,3.7l-1,0.4L35,48z M35.2,52.3
			l-0.6-1.1l0,0c0.6,0.6,1.1,0.8,1.6,0.7l0,0L35.2,52.3z M38,51.1c0.4-0.3,0.6-0.8,0.6-1.6l0,0l0.4,1.2L38,51.1L38,51.1z"/>
	</g>
	<g>
		<path class="st0" d="M30.8,53.2L30.8,53.2l-1.2,0.2l0,0c0.3-0.2,0.5-0.6,0.4-1.1l0,0C30.1,52.8,30.4,53.2,30.8,53.2z M30.8,48.2
			c1-0.2,1.9,0.2,2.1,1.2l0.5,2.5c0.1,0.4,0.3,0.6,0.7,0.7l0,0L31.9,53l0,0c0.3-0.2,0.4-0.6,0.4-0.9l-0.4-2.4
			c-0.2-1-0.7-1.4-1.3-1.3c-0.4,0.1-0.6,0.3-0.8,0.5l0,0C29.9,48.5,30.3,48.3,30.8,48.2z"/>
	</g>
	<g>
		<path class="st0" d="M25.1,50.6c0,1.4,0.6,2.6,1.4,2.9l0,0c-0.1,0-0.2,0-0.3,0c-1.1,0-2.3-0.8-2.3-2.5c0.1-1.7,1.5-2.4,2.5-2.4
			c0.1,0,0.2,0,0.3,0l0,0C25.7,48.7,25.1,49.2,25.1,50.6z M28.7,48.7L28.7,48.7c-0.3,0.2-0.5,0.5-0.5,0.8L28,52.7
			c0,0.4,0.2,0.7,0.5,0.9l0,0l-1.6,0l0.1-4.9L28.7,48.7z"/>
	</g>
	<g>
		<path class="st0" d="M23.8,48.4c-0.3,0.1-0.6,0.4-0.7,0.7l-0.6,3.1c-0.1,0.4,0.1,0.7,0.4,0.9l0,0l-2.1-0.4l0,0
			c0.3-0.1,0.6-0.4,0.7-0.7l0.6-3.1c0.1-0.4-0.1-0.7-0.3-0.9l0,0L23.8,48.4L23.8,48.4z"/>
	</g>
	<g>
		<path class="st0" d="M17.4,48.7c-0.5,1.3-0.4,2.8,0.1,3.2l0,0c-0.9-0.3-2-1.6-1.4-3.2c0.5-1.4,1.8-1.8,2.8-1.6l0,0
			C18.5,47.1,17.9,47.5,17.4,48.7z M20.7,50.3c-0.5,1.4-1.8,1.8-2.7,1.6l0,0c0.4-0.1,1-0.5,1.4-1.6c0.5-1.3,0.4-2.8,0-3.2l0,0
			C20.2,47.5,21.3,48.7,20.7,50.3z"/>
	</g>
	<g>
		<path class="st0" d="M12.8,48.1c-0.3,0-0.6-0.1-0.9-0.3c-0.3-0.2-0.5-0.6-0.6-1c-0.1-0.4,0-0.8,0.3-1.1c0.2-0.3,0.6-0.5,1-0.6
			c0.4-0.1,0.8,0,1.1,0.3c0.3,0.2,0.5,0.6,0.6,1c0.1,0.4,0,0.8-0.3,1.1C13.7,47.9,13.3,48.1,12.8,48.1z M12.8,45.7
			c-0.3,0-0.6,0.1-0.8,0.4c-0.3,0.4-0.2,1,0.2,1.3c0.4,0.3,1,0.2,1.4-0.2c0.2-0.2,0.2-0.5,0.2-0.7c0-0.3-0.2-0.5-0.4-0.6
			C13.2,45.8,13,45.7,12.8,45.7z"/>
	</g>
	<g>
		<path class="st0" d="M11.8,42.6c-0.3-0.1-0.7-0.1-1,0.1l-2.4,2.1c-0.3,0.2-0.4,0.6-0.3,0.9l0,0l-1.4-1.6l0,0
			c0.3,0.1,0.7,0.1,1-0.2l3.1-2.6L11.8,42.6L11.8,42.6z M7.7,40.7L7.7,40.7l1.5-1.1l1.3,1.5l0,0C9.7,40.2,8.9,40.2,7.7,40.7z"/>
	</g>
	<g>
		<path class="st0" d="M5.5,37.1c-1.2,0.7-2.1,1.8-2,2.5l0,0C3,38.7,3,37,4.6,36.2c1.3-0.7,2.5-0.2,3.2,0.6l0,0
			C7.4,36.6,6.6,36.5,5.5,37.1z M6.9,40.4c-1.3,0.7-2.5,0.2-3.1-0.6l0,0c0.3,0.2,1.1,0.3,2.2-0.3c1.2-0.7,2.1-1.8,2.1-2.4l0,0
			C8.4,38,8.4,39.6,6.9,40.4z"/>
	</g>
	<g>
		<path class="st0" d="M1.2,33.3c0-0.1-0.1-0.2-0.1-0.3l1.6-0.5l0,0c-0.7,0.7-1.2,1.3-1.2,1.9l0,0C1.3,33.9,1.3,33.6,1.2,33.3z
			 M5,32.2c-0.5,0.1-0.6,0.8-0.6,1.8c0,1.2-0.4,1.6-1,1.8c-0.9,0.3-1.6-0.4-1.8-1l0,0c0.2,0.4,0.6,0.7,1.1,0.5
			c0.5-0.1,0.5-0.6,0.6-1.6c0.1-1,0.2-1.7,1-1.9c1-0.3,1.6,0.3,1.8,0.9l0,0C5.9,32.3,5.5,32,5,32.2z M6.4,34.1
			c0.1,0.3,0.2,0.4,0.3,0.6l-1.9,0.5l0,0c0.5-0.5,1.4-1.2,1.4-2.1l0,0C6.3,33.4,6.3,33.8,6.4,34.1z"/>
	</g>
	<g>
		<path class="st0" d="M5.2,25.6L5.2,25.6l0.1,2.2l0,0c-0.2-0.4-0.5-0.5-0.9-0.3l-0.5,0.2L4,29.5l-0.1,0l-0.1-1.7l-2.1,1l-1.4-0.5
			l0,0l3.8-1.8C4.8,26.1,5.1,25.8,5.2,25.6z M5.4,29.2L5.4,29.2l0.1,1.1h0c-0.2-0.2-0.5-0.5-1.1-0.7l0,0C4.9,29.7,5.2,29.7,5.4,29.2
			z"/>
	</g>
	<g>
		<path class="st0" d="M1.3,24.2c-0.4,0.2-0.8,0.4-0.9,0.6l0,0l0.3-1.6l3.7-2l1.7,0.3l0,0L1.3,24.2z M1,21.4L1,21.4l0.2-1.2l0,0
			c0.1,0.3,0.4,0.6,1,0.8l0,0C1.6,20.9,1.2,21.1,1,21.4z M5.4,24.4L5.4,24.4l-0.2,1.2l0,0c-0.1-0.3-0.4-0.6-1-0.8l0,0
			C4.8,25,5.2,24.8,5.4,24.4z"/>
	</g>
	<g>
		<path class="st0" d="M7.1,18.5c-0.5,1.2-1.7,2.1-3.3,1.5c-1.4-0.6-1.8-1.9-1.5-2.9l0,0c0.1,0.6,0.4,1.2,1.5,1.6
			c1.3,0.5,3,0.3,3.3-0.4l0,0C7.2,18.4,7.1,18.5,7.1,18.5z M2.9,15.6C3,15.5,3,15.3,3,15.2l1.6,0.6l0,0c-1.1,0.1-1.8,0.4-2.2,0.9
			l0,0C2.6,16.3,2.8,16,2.9,15.6z M4.8,17.6L4.8,17.6l0.8-1.9l0,0c0,0.4,0.3,0.6,0.6,0.7l1.1,0.5c0,0.3,0.1,0.8,0,1.2l-1.5-0.6
			C5.4,17.3,5,17.3,4.8,17.6z"/>
	</g>
	<g>
		<path class="st0" d="M8.8,15.2l-0.9,1.3l0,0c0.1-0.3-0.1-0.7-0.4-0.9l-2.6-1.8c-0.3-0.2-0.7-0.2-1,0l0,0l0.9-1.3L8.8,15.2z
			 M5.9,10.8l1.3,0.8l0,0C6,11.2,5.6,11.5,5,12.2l0,0L5.9,10.8z M6.6,12.3L6.6,12.3l1.5,1l0,0c-0.5-0.2-1-0.2-1.3,0.1l0,0
			C7,13,6.8,12.7,6.6,12.3z M8.7,12.5L8.7,12.5l1.3,1l-1,1.5l0,0C9.5,14,9.5,13.5,8.7,12.5z"/>
	</g>
	<g>
		<path class="st0" d="M10.2,13.2c0.1-0.3,0-0.7-0.2-1L7.7,10c-0.3-0.3-0.6-0.3-1-0.2l0,0l1.5-1.5l0,0c-0.1,0.3,0,0.7,0.2,1l2.9,2.8
			L10.2,13.2L10.2,13.2z M11.8,8.9L11.8,8.9l1.3,1.4l-1.4,1.4l0,0C12.4,10.9,12.3,10.1,11.8,8.9z"/>
	</g>
	<g>
		<path class="st0" d="M14.5,9.3l-1.3,0.9l0,0c0.2-0.3,0.2-0.7,0-1l-1.8-2.6c-0.2-0.3-0.6-0.5-0.9-0.4l0,0l1.3-0.9L14.5,9.3z
			 M13.5,4.1l0.9,1.2l0,0c-0.9-0.7-1.5-0.7-2.3-0.2l0,0L13.5,4.1z M13.5,5.7L13.5,5.7l1.1,1.5l0,0c-0.4-0.3-0.8-0.5-1.2-0.4l0,0
			C13.6,6.6,13.6,6.2,13.5,5.7z M15.5,6.7L15.5,6.7l0.8,1.4l-1.5,1l0,0C15.6,8.5,15.9,7.9,15.5,6.7z"/>
	</g>
	<g>
		<path class="st0" d="M19,5.9c-0.2-0.5-0.9-0.5-1.8-0.4c-1.2,0.1-1.6-0.2-1.9-0.8c-0.4-0.9,0.1-1.6,0.7-2l0,0
			c-0.4,0.3-0.6,0.7-0.4,1.2c0.2,0.5,0.7,0.5,1.7,0.4c1-0.1,1.7,0,2,0.8c0.4,0.9-0.1,1.6-0.7,1.9l0,0C19,6.8,19.2,6.4,19,5.9z
			 M17.3,7.6c-0.3,0.1-0.4,0.2-0.5,0.4L16,6.2l0,0c0.5,0.5,1.4,1.2,2.3,1.1l0,0C18,7.4,17.6,7.4,17.3,7.6z M17.4,2.3
			c0.1,0,0.2-0.1,0.3-0.2l0.7,1.5l0,0c-0.8-0.6-1.5-1.1-2-1l0,0C16.9,2.4,17.1,2.4,17.4,2.3z"/>
	</g>
	<g>
		<path class="st0" d="M22.9,4.6c-0.7,0-1.3-0.5-1.4-1.2c-0.1-0.4,0-0.8,0.3-1.1c0.2-0.3,0.6-0.5,1-0.6c0.8-0.1,1.6,0.4,1.7,1.2
			c0.1,0.8-0.4,1.6-1.2,1.7C23.1,4.6,23,4.6,22.9,4.6z M22.9,2.2c-0.1,0-0.1,0-0.2,0c-0.3,0-0.5,0.2-0.6,0.4C22,2.8,21.9,3,21.9,3.3
			c0,0.3,0.2,0.5,0.4,0.6s0.5,0.2,0.7,0.2C23.6,4,23.9,3.5,23.8,3C23.8,2.5,23.4,2.2,22.9,2.2z"/>
	</g>
</g>
</svg>
