<?xml version="1.0" encoding="utf-8"?>
<!-- Generator: Adobe Illustrator 19.2.1, SVG Export Plug-In . SVG Version: 6.00 Build 0)  -->
<!DOCTYPE svg PUBLIC "-//W3C//DTD SVG 1.1//EN" "http://www.w3.org/Graphics/SVG/1.1/DTD/svg11.dtd">
<svg version="1.1" id="Layer_1" xmlns="http://www.w3.org/2000/svg" xmlns:xlink="http://www.w3.org/1999/xlink" x="0px" y="0px"
	 viewBox="0 0 500 500" style="enable-background:new 0 0 500 500;" xml:space="preserve">
<style type="text/css">
	.st0{fill:#0F0F0F;}
	.st1{fill:#AFAFAF;}
</style>
<circle class="st0" cx="250" cy="250" r="248.8"/>
<g>
	<path class="st1" d="M267.6,494.1C267.6,494.1,267.6,494,267.6,494.1c-3.2,0.8-6.4,1.7-9.9,2.7c0.3-3.7,2.5-4.7,4.6-5
		C264.1,491.4,266.5,491.5,267.6,494.1C267.6,494,267.6,494,267.6,494.1c-0.2-1.1-0.1-2.2-0.5-3c-2-3.8-2-4.1,1.3-6.8
		c0.8-0.6,1.6-1.3,2.8-2.3c0.1,1.1,0.2,1.9,0.2,2.6s-0.2,1.4-0.4,2.5c2.5-0.3,4.7-0.6,7.1-0.9c0.4,1.9,0.7,3.8-2.3,4.4
		c-1.1,0.2-1.9,1.4-2.6,2.7c1.4-0.5,2.8-1.2,4.3-1.6c2.6-0.6,1.4-2.5,1.6-4c0.2-1.4,1.1-2.8,1.9-4.6c0.5,1.3,0.7,2.1,1.1,3
		c1.2-1.9,2.9-3.5,3.2-5.4c0.6-3.8,2.6-6.4,5.1-9.1c1.2-1.2,1.2-3.6,1.7-5.3c1.5-0.3,3.8-0.6,6.1-1.1c0.5-0.1,1-0.7,1.4-0.6
		c3,1,5.9,2.3,9.2,1.2c0.2,1.5,0.5,3,0.7,4.5c-0.4,0.1-0.8,0.3-1.1,0.4c-1.3-1.1-2.6-2.2-3.4-2.9c-2,0.3-3.5,0.6-5,0.8
		c-4.1,0.6-7.2,3.6-8.3,8c-0.5,1.8-1.5,3.5-1.9,5.3c-0.3,1.4-0.1,2.9,0,4.4c0,1,0.5,2.7,0.3,2.7c-1.5,0.4-3,0.9-4.5,0.7
		c-1-0.1-2-1.1-3.2-1.8c-1.5,2.5-2.8,4.8-3.9,6.6c2.4-0.1,5.5-0.3,8.8-0.5c0.3,0.8,0.8,1.8,1.2,2.8c0.1,0,0.1,0,0.2,0
		c0.6-1.4,3.3-1.9,1.7-4.1c0.6-0.3,1.2-0.9,1.8-0.8c0.9,0.1,1.8,0.7,3.3,1.4c-1.9-4.4,1.6-5.6,3.3-7.8c0.8-1.1,1.2-2.4,1.2-3.8
		c2.3-1.7,4.7-3.3,7-5c-1.5-1.2-7,1.7-9.4,5.4c-1.3-2.2-2.5-4.3-3.7-6.3c2.2-2.2,2.3-2.2,4.6,0.2c1.6-0.8,3.9-0.9,3.5-3.8
		c-0.1-0.4,0.8-0.9,1.3-1.4c0.5,0.5,1.5,1.1,1.6,1.6c0.3,3.3,1.9,2.3,4.1,1.8c5.3-1.2,10.7-2.1,16.1-2.8c3.1-0.4,6.3-0.3,9.4-0.4
		c2.5-0.1,5.1,0,8.3,0c-1,1.5-1.5,2.3-2.2,3.5c1.5,0.9,3.1,1.8,4.6,2.8c0,0.2-0.1,0.4-0.1,0.5c-2.6-0.2-5.3-0.5-8.2-0.7
		c0.4-0.8,0.7-1.5,0.9-2.1c-0.2,0-0.4-0.1-0.6-0.1c-1.5,0.1-3,0.1-4.5,0.4s-2.9,0.7-4.4,1.2c-1.4,0.4-2.7,1.1-4.1,1.5
		c-1.6,0.5-3.1,0.6-2.2-2.6c-0.3,0.1-0.6,0.3-1,0.4c-1.1,1.7-2.1,3.4-3.6,5.8c-1.3-1-2.9-2.3-4.6-3.5c-0.7-0.5-2.1-1.3-2.4-1
		c-3.2,3-6.2,6.1-9.2,9.2c-0.3,0.3-0.4,0.7-0.5,0.9c0.4,2,4.9,1.5,2.8,5.2c0.6,0.4,1.2,0.8,1.8,1.2c44.8-10.1,85-32.2,117.1-62.7
		c-1.2-0.9-1.9-2.7-2-5.3c1.4,1.3,2.6,2.4,3.9,3.5c15.4-14.9,28.9-31.8,40-50.3v-0.1c-1.5,0.7-2.7,1.3-4.1,2c0-2.2,0-4.1,0-7
		c2.2,2.1,3.4,3.3,5.3,1.1c0.4-0.4,1-0.6,1.6-0.6c14.4-25,24.6-52.8,29.6-82.3c-0.7,0.2-1.4,0-2.7-0.6c0.3-1.1,0.4-2.1,0.9-2.8
		c0.5-0.7,1.3-1.6,2-1.6c0.2,0,0.4,0,0.6,0.1c0.3-2.2,0.6-4.4,0.9-6.6c-3,0.2-3.6,3.1-5.1,5c-0.8,1-2,1.8-3.1,2.7
		c-0.2-0.2-0.4-0.4-0.5-0.6c-0.7,1.1-1.4,2.2-2.1,3.4c0.3,0.6,0.7,1.3,1.1,2.1c-0.3,0.4-0.6,0.8-0.9,0.9c-3.3,1.8-6.8,3.2-8.8,7.1
		c-0.5,1.1-4,1.1-6,0.9c-3.7-0.5-7.6,0.3-11.1-1.8c-0.6-0.3-1.9,0.6-2.9,0.9c-0.2,0.3-0.5,0.6-0.7,0.9c-0.8-1.1-1.5-2.2-2.2-3.2
		c-1.5,0.6-3,1.3-4.6,1.7c-0.4,0.1-1-1-1.2-1.2c1.8-1.4,3.3-2.7,4.9-3.8c0.8-0.5,1.9-0.9,2.8-1c2.4-0.3,4.9-0.3,7.3-0.8
		c0.9-0.2,2.3-1.1,2.5-1.9c0.8-3.3,3.4-3.8,6-4.5c2.4-0.7,4.7-1.9,7-2.9c0.5-0.2,0.9-0.8,1.3-0.8c4.7,0.7,7.9-3.1,12-4.2
		c1-0.3,1.7-1.3,2.7-2.1c0.5,0.4,1.1,0.9,1.7,1.4c1.1-9.5,1.7-19.2,1.7-29c0-26.3-4.1-51.7-11.6-75.6c-1.2,1-3.2,1.9-6.1,2.6
		c1.8-1.5,3.7-3,5.5-4.5c-3.5-10.7-7.7-21.1-12.5-31.2c-0.4,0.3-0.9,0.6-1.4,0.8c0.3-0.6,0.6-1.3,0.8-1.9
		c-12.5-25.5-29.2-48.6-49.3-68.4c-0.6,0.9-1.2,1.8-1.9,2.9c-1.1-0.9-2.1-1.8-3.3-2.9c0.9-0.8,1.8-1.7,2.7-2.4
		c-34.2-32.8-77.8-55.9-126.2-65.1c-0.5,0.1-1,0.1-1.6,0c-1.1-0.2-2.6,0.9-3.6,1.8c-2,1.8-2.7,5.4-6.6,4.7c-0.2,0-0.8,1-1,1.6
		c-0.9,1.8-0.3,4.7-4.4,3.3c-2.8-0.9-4,2.9-5.5,5.1c-0.6,0.9-0.8,2-1.5,2.7c-0.7,0.6-1.8,1.1-2.7,1.1c-0.4,0-0.8-1.4-1.1-2.2
		c-0.4-1-0.7-2.1-1.2-3.9c-1.1,4.7-5,3.6-7.4,5c-2.6,1.5-5.2,3-8.6,5c-4-1.8-6.6,2-9.8,5c-2.8,2.7-6,5-9,7.6
		c-1.8,1.6-3.4,3.5-5.1,5.2c-1,1-2.2,1.9-3.8,3.3c-0.3-1.4-0.6-2.1-0.5-2.7c0.1-1.8-0.6-2.4-2.4-2.4c-0.9,0-1.8-0.6-2.7-0.9
		c0.6-0.7,1.1-1.3,1.6-2c0.9-1.2,1.7-2.4,3-4.3c-2,0.2-3.2,0.4-4.3,0.5c-0.1-2.6,3.4-6.4,5.5-5.9c2,0.4,2.6,1.8,1.9,3.8
		c-0.6,1.8-1.1,3.7-1.6,5.6c0.2,0.2,0.5,0.3,0.7,0.5c6.1-5,12.1-10.1,18.4-15.3c-2.6-2.3-4.9-4.1-7.1-6.2c-0.6-0.6-0.8-1.7-1.2-2.5
		c1.2-0.1,2.4-0.4,3.6-0.2c1.3,0.2,2.6,1,3.9,1.4c0.2,0.1,0.6-0.7,1-1c-7.5-5.1-9.3-8.3-6.3-11.8c1.1,2,2,3.9,3.1,6
		c3.6,0.2,6.7-1.1,10.2-3c4.2-2.4,9.5-2.6,14.3-4c3.7-1.1,7.4-2.4,11.1-3.7C267.4,0.5,258.8,0,250,0c-46.3,0-89.7,12.6-126.9,34.6
		c0,0.1-0.1,0.1-0.1,0.2c-1.6,2.3-1.3,2.9,1.2,3.6c2.2,0.7,4.3,1.8,6.4,3.2c-5.4-3.6-8.7,0.3-12.3,3.1c-1.2,0.9-2.5,1.7-3.8,2
		c-3.7,1-6.8,2.5-7.8,6.7c-0.1,0.3-1.6,0.4-2.4,0.4s-1.8-0.9-2.3-0.6c-2.1,1.3-4,1.4-6-0.2c-1,0.8-2,1.6-2.9,2.3
		c-0.6,0.8-1.1,1.7-1.5,2.5c-1.4,3.1-3.4,4.4-6.3,4c-1.3,1.2-2.6,2.3-3.9,3.5c0.7,1,1.5,2,2.2,3c2.9,3.8,3.8,8.2,5.8,11.8
		c-3-1.8-6.1-3.4-9-5.3c-1.7-1.1-3.3-2.4-5-3.8c-36.8,35.9-62.6,83.1-71.8,136c0.4-0.2,0.8-0.5,1.2-1c-0.2,1.1-0.7,1.8-1.4,2.2
		C1.2,221.9,0,235.8,0,250c0,14,1.2,27.6,3.4,41c0.1,0,0.2,0,0.2,0c0.8-0.1,1.5-1,2.2-1.5c1.8-1.4,3.5-2.8,5.8-4.6
		c0.1,4.7,3.5,4.4,6.3,5.1c-2.8,2.2-5.5,4.2-8.1,6.2c0.1,0.4,0.2,0.7,0.4,1.1c1.8-0.3,3.6-0.8,5.4-0.8c0.9,0,2.4,0.5,2.6,1.2
		c0.8,2.2,1.2,4.6,2.6,7.1c0.3-1.7,0.6-3.4,1-5.5c4.1-2.8,6.5-2.8,10.6,0.5c0,0.2,0,0.5-0.2,0.6c-2,0.9-3.3,2.3-4.3,4.8
		c-0.9,2.2-5.3,4.8-7.6,4.4c-2.5-0.4-4.9-1-7.4-1.6c-1.6-0.5-1.8-2.6-0.6-4c0.9-1,1.6-2.2,1.9-3.9c-1.6,0.4-3.3,0.8-4.7,1.2
		c-1.5-1.1-3.1-1.9-4.8-2.6c9.2,46.7,31.4,88.6,62.6,122.1c2.5-0.8,5-1.2,7.7-0.3c0.4,0.1,1.1,1.1,1,1.3c-0.4,0.6-1.1,1.5-1.7,1.5
		c-1.6,0-3.2-0.1-4.8-0.2c15.4,16.1,33,30.1,52.2,41.6c1.1-0.2,2.2-0.4,3.4-0.6c-1.4-0.6-2.6-1-3.8-1.5c4.2-0.7,8.7,1.7,12.4-2
		c1.5,2.4,1.2,3.4-1.3,3.7c-3.2,0.4-6.3,0.8-9.5,1.1c11.8,7,24.1,13,37,18c0.3-0.1,0.6-0.2,0.9-0.3c0.9-0.2,2-0.2,2.6-0.7
		c1.8-1.9,3.9-2.2,5.5-0.6c1,0.9,1,3,1.3,4.3c-0.5,0.2-0.9,0.4-1.4,0.6c25.4,8.7,52.7,13.4,81.1,13.4c2.6,0,5.2-0.1,7.9-0.1
		c-0.1-0.1-0.1-0.1-0.2-0.2c2.1-0.3,3.9-2.3,5.3,0c2.2-0.1,4.3-0.3,6.5-0.4C268.4,497.9,268.3,495.8,267.6,494.1
		C267.7,494,267.6,494.1,267.6,494.1z M489.7,227.9c1.4,0.4,2.7,0.7,4.1,1.1c0,0.4,0.1,0.8,0.1,1.3c-0.9,0.4-2.1,1.4-2.7,1.1
		c-0.9-0.4-1.4-1.7-2-2.7C489.3,228.4,489.5,228.1,489.7,227.9z M489,263.3c-1.1,0.2-2.4,0.7-3.3,0.3c-0.6-0.3-0.7-1.9-1-2.9
		c0.4-0.1,0.8-0.2,1.1-0.3c1,0.7,2,1.4,3,2C489,262.7,489,263,489,263.3z M483.6,205.7c0-0.6,0.4-1.2,1-2.7c0.8,1.6,1.6,2.4,1.6,3.3
		c0,2.8,0.2,5.3,2.4,7.4c0.4,0.4,0.3,2.1-0.2,2.6c-0.9,0.9-2.2,1.6-3.4,1.8c-0.4,0.1-1.4-1.8-1.5-2.8
		C483.3,212.1,483.5,208.9,483.6,205.7z M471.5,216c1.1-2.9,2.6-5.6,3.9-8.3c0.2,0.1,0.4,0.2,0.5,0.3c-0.1,2.8-0.1,5.6-0.5,8.4
		c-0.1,0.7-1.5,1.3-2.2,1.9C472.6,217.5,471.4,216.4,471.5,216z M471.1,244.2c1.5,3.9,1.1,4.5-2.2,5.4c-1.2,0.3-2.3,1-3.5,1.6
		c-0.3-0.3-0.5-0.6-0.8-0.9C466.7,248.3,468.8,246.4,471.1,244.2z M222,23.2c3.5-2.7,7.1-5.3,10.6-7.9c0.2,0.3,0.3,0.6,0.5,1
		c-0.1,1.5,0.1,3.2-0.5,4.5c-0.7,1.3-2.2,2.1-3.4,3.2c-1.1,0.9-2.1,2-3.3,2.7c-1.1,0.6-2.5,1.1-3.7,1.1c-0.7,0-2-1.3-1.9-2
		C220.3,24.9,221.2,23.8,222,23.2z M274.6,355.1c1.2,0.6,2.4,1.2,3.8,2c-1.1,1.3-3.3,2.5,0,4.1C273.9,360.7,273.7,360.3,274.6,355.1
		z M281.3,353.3c-1.5-0.3-3-0.8-4.4-0.7c-2.7,0.2-5.4-2.6-4.6-5.1c0.1-0.4,1.2-0.9,1.4-0.8c2.4,1.6,4.1,0.3,5.9-1.7
		c0.6,1.2,1,2,1.5,3c0.7-0.9,1.2-1.6,1.8-2.4c2.2,0.4,2.9,5.7,6.5,1.9c-0.4-0.6-0.9-1.2-1.8-2.5c6.9-0.9,9.5,4.6,13.8,7.4
		c-1.3,2.5-2.5,4.6-5.7,3.2c-0.6-0.3-1.6,0.5-2.6,0.8c-1.1-1-2.1-3.1-3.7-1.2c-1.9-1.5-3.6-2.8-5.7-4.5c-0.5,1.6-0.8,2.3-1.1,3.1
		C282.1,353.5,281.7,353.3,281.3,353.3z M272.3,228.5c3.7,0.2,7.3,0.3,11.4,0.5c-0.9,1-1.6,2.5-2.7,2.8
		C277.9,232.7,273.9,230.9,272.3,228.5z M288.8,418.1c-1.7-2.4-2.5-5.5-3.5-8.4c-0.5-1.3-0.4-2.8-0.8-4.1c-0.8-2.7-1.6-5-0.1-7.9
		c1.6-3.1,2-6.8,2.9-10.4c2.3,1.8,2.5,2.3,1.5,4.5c-3.2,6.5-2.5,12.8,0.1,19.3c2.1,5.2,4.7,9.6,9.2,13.2c3,2.4,4.9,6,7.3,9
		c-0.3,0.4-0.5,0.7-0.8,1.1c-2-1.5-4.2-2.9-5.9-4.7C295.2,426,291.7,422.2,288.8,418.1z M307.9,454.7c-0.1,0-0.3-0.1-0.4-0.2
		c-0.6-1-1.1-2.1-1.7-3.1c-1.5,1-3.1,1.8-4.4,3c-1.3,1.1-2.3,2.6-3.7,3.5c-0.7,0.5-2,0.4-3,0.6c-0.2-0.4-0.3-0.9-0.5-1.3
		c5.6-1.7,7.8-8.9,14.7-8.3c1.3,0.1,2.6,0.4,4,0.7C311.1,451.4,309.5,453.1,307.9,454.7z M347.3,468.1c-5.3,0-10.6,0-15.9,0
		c0-0.3,0-0.5,0-0.8c-0.6,0.9-1.3,1.8-1.9,2.7c-0.3-0.2-0.6-0.4-0.8-0.6c0.6-1,1.5-1.9,1.7-3s-0.3-2.3-0.5-3.4
		c-0.7,0.5-1.4,1-2.1,1.6c-0.2,0.2-0.3,0.6-0.6,0.7c-2.6,0.8-5.2,1.8-7.8,2.3c-0.8,0.2-2.6-1-2.5-1.3c0.3-1.4,0.3-3.2,2.7-3
		c4,0.4,7.3-0.9,9.7-4.3c0.1,0.3,0.3,0.6,0.4,0.8c1.2,0,2.5-0.1,3.7,0c1,0.1,2,0.4,3,0.6c0.7,0.1,1.3,0.6,2,0.5
		c2.7-0.3,5.3-0.6,5.5,3.4c0,0.4,1.2,0.8,1.8,1.2c0.7,0.4,1.3,0.9,2,1.3C347.5,467.3,347.4,467.7,347.3,468.1z M346.6,410.2
		C346.6,410.3,346.6,410.3,346.6,410.2C346.6,410.3,346.6,410.3,346.6,410.2c1.5,2.2,2.2,3.6-0.5,6.1c-2.3,2.1-3,5.9-4.5,9
		c-0.7,1.4-2,2.6-2.5,4.1c-1.1,3.5-1.7,7.2-2.6,10.9c-1.9-2.3-3.5-0.7-4.9,1c-1.9,2.5-3.6,5.1-5.5,7.6c-0.2,0,0.6,1.4,2.4-0.1
		c0.3-0.2,1.3,0.4,1.9,0.6c0,0.3-0.1,0.5-0.1,0.8c1.2-0.6,2.4-1.3,3.6-1.9c0.2,0.2,0.4,0.4,0.5,0.6c-0.8,0.8-1.6,1.6-2.4,2.4
		s-1.7,1.5-3,2.6c1.1,0.5,2,1,2.9,1.4c-0.1,0.3-0.3,0.6-0.4,0.9c-0.7,0.2-1.5,0.7-2.1,0.7c-2.6-0.2-4.9-0.7-7,1.8
		c-1.4,1.6-6.3,0.5-7.9-1.8c-0.4,1.7-0.6,2.8-0.8,4.1c-1.4,0.7-3.3,0.9-3.4-1.2c-0.1-1.2,1.5-2.5,2.4-3.6c0.1-0.2,0.6-0.1,0.9-0.1
		c3.1,0,5.3-1.1,5.3-4.7c0-0.7,0.4-1.3,0.5-1.5c-0.8-1.3-1.3-2.3-1.9-3.2c-0.6-0.9-1.3-1.7-2.3-3c1.1-0.3,2.2-1,3.2-0.9
		c3.1,0.2,6.7-1.7,8.4-4.4c0.8-1.4,2.2-2.4,3.2-3.7c2.1-2.8,4.2-5.8,6.3-8.7c0.3-0.4,0.4-1.3,0.7-1.3c3.5-0.1,2.9-3.5,4.2-5.3
		c0.2-0.3,0.3-0.9,0.1-1.3C340.2,414.4,342.7,410.7,346.6,410.2c-0.1,0.1-0.1,0-0.1,0l0,0H346.6c0.3-1.5,0.6-3,0.9-4.5
		C350.2,410.2,350.2,410.3,346.6,410.2z M313.7,451.7c0.5-0.9,1.4-1.5,2.7-2.8c0.6,2.2,0.8,3.2,1.3,4.9c-1.3,0-2.5,0.2-3.5-0.1
		C313.7,453.7,313.4,452.2,313.7,451.7z M345.1,180.5c0.5,0.3,0.7,1.2,1,1.9c-0.7,0.1-1.4,0.4-2.1,0.3c-0.6-0.1-1.2-0.6-2.7-1.5
		c0.8,1.8,1.1,2.7,1.5,3.6c-0.1,0.3-0.3,0.5-0.4,0.8c-1.4-0.7-2.8-1.5-4.2-2.3c0.6-0.8,1.2-1.5,1.6-2.1c-2.5-0.8-4.8-1.6-7.7-2.5
		c0.5-1,1-2,1.5-3.2c1.4,0.5,2.6,1,3.8,1.5c2-2.3,4.1-4.7,6.1-7c0.2,0.2,0.5,0.3,0.7,0.5c-0.2,0.5-0.3,1.1-0.6,1.4
		C340.5,175.2,341,178.3,345.1,180.5z M348.4,332.1c0,0.3-0.1,0.6-0.1,0.9c-2.1-0.3-4.3-0.5-6.4-0.8c-0.2,0-0.4-1.3-0.2-1.6
		c1.2-1.4,2.5-2.6,4.6-4.7c-0.4,2.4-0.7,4-1.1,5.8C346.4,331.9,347.4,332,348.4,332.1z M346.8,335.4c2-3,5.4-3.5,9.6-1.4
		c-1.3,3.3-4.2,2.8-7.2,3.4c0.2-1.2,0.3-1.9,0.4-2.6C348.6,334.9,347.8,335.1,346.8,335.4z M333.3,427.8c-1.6,2.4-1.4,6.2-5.8,5.6
		C329,428.5,330.5,427,333.3,427.8z M330.5,354.7c-0.3,1.7-1.2,3.4-1.9,5.2c-0.6-0.2-1.2-0.3-1.3-0.5c-1.3-2.7-3.1-3-5.5-1.5
		c-0.3,0.2-1.3-0.8-1.9-1.1c2.6-1.8,4.7-3.4,6.9-4.7c0.7-0.4,2.1-0.6,2.5-0.2C330,352.5,330.7,353.8,330.5,354.7z M373.2,328.3
		c-0.4-0.2-0.9-0.5-1.3-0.7c0.3-1.4,0.2-3.2,1.1-4c1.7-1.5,3.9-2.5,6.8-0.3C377.4,325.1,375.3,326.7,373.2,328.3z M375,281.8
		c0.8-0.1,2.5,1.4,2.4,1.9c-0.6,2.5-2.7,2.4-4.7,2.4C372,283.6,372.8,282,375,281.8z M396.9,336.7c-0.2-0.3-0.3-0.5-0.5-0.8
		c0.6-1,1.3-2,1.9-2.9c1.4,0.9,2.4,1.5,4.1,2.6C400,336.1,398.4,336.4,396.9,336.7z M440,357.8c0.8-1.5,1.4-2.7,2.3-4.3
		c0.6,0.7,1.7,1.4,1.6,1.8C443.5,357.1,442.4,358.4,440,357.8z M445.2,264.3c2.7,4,2.7,5.5,0.5,6.5c-2-2.2-4-4.3-6.3-6.8
		C441.7,264,443.4,264.1,445.2,264.3z M437,292.9L437,292.9C437.1,293,437,292.9,437,292.9h0.1c0.2-1.2,0.4-2.4,0.7-4.4
		c1.1,1.1,1.9,1.9,2.8,2.8c-1.2,0.5-2.3,1.1-3.5,1.6C437.1,292.9,437.1,292.9,437,292.9C437.1,293,437.1,293,437,292.9
		c0.2,0.2,0.3,0.3,0.4,0.4c0.1-0.1,0.3-0.2,0.4-0.3c0.2,0.5,0.4,1,0.6,1.5c0.4,0.4,0.8,0.9,1.3,1.4c0.7-1.5,1.3-2.8,1.9-4
		c0.4,0.3,0.8,0.6,1.2,0.9c0,1.2,0,2.5,0,3.8c-1.3,0.2-2.6,0.5-3.2,0.6c-0.4-1-0.8-1.9-1.2-2.8c-0.4-0.4-0.7-0.8-1.1-1.2
		c-0.6,0.4-1.2,0.8-1.8,1.3C436.1,294,436.6,293.5,437,292.9C437.1,293,437,292.9,437,292.9z M430.9,312.1c1.5-1.1,3.1-1.9,4.8-2.6
		c0.4-0.2,1.6,0.6,1.6,1.1c0.5,4-3.4,7-7.2,6.5c-1.5-0.2-3.5,1.4-5,2.5c-2.7,2-5.2,4.2-7.8,6.2c-0.4,0.3-1,0.2-1.8,0.4
		c-1.1-0.5-2.9-0.6-3.6-1.6c-0.7-0.9-0.6-2.7-0.3-4c0.1-0.3,2.1-0.3,3.2-0.4c1.1,0,2.3,0.4,3.2,0c2.5-1,5-2,7.2-3.4
		C427.3,315.5,428.9,313.6,430.9,312.1z M424.1,315.1c0,0.1,0,0.3,0,0.3c-3.1,0.7-5.5,3.5-9,2.8c-1.2-0.3-2.5-0.8-3.7-0.7
		c-1.1,0.1-2.1,1-3.5,1c1.3-2,2.7-4,4.4-6.7C415.8,312.7,419.9,313.9,424.1,315.1z M405.8,69.4c1.1,0.9,1.8,1.5,2.5,2.1
		c-1.1,0.6-2.1,1.4-3.2,1.8c-0.3,0.1-1.5-1.2-1.4-1.8C403.9,70.9,404.9,70.4,405.8,69.4z M403.1,322.1c1.1-0.7,2.3-2,3.2-1.8
		c1,0.2,2.2,1.7,2.4,2.8c0.4,2.1,1,4.6-1.9,6.2c-0.9-2.4,2-6.8-3.9-6.3C403.1,322.7,403.1,322.4,403.1,322.1z M400,330.1
		c0.2-0.6,1.6-1.3,1.8-1.1c2.1,1.8,5.8,1.8,6.7,5.8c-2.9-1-5.4-1.8-7.8-2.9C400.3,331.8,399.8,330.5,400,330.1z M397,168.5
		c0.7,1.2,1.2,2.1,1.8,3c-0.2,0.3-0.3,0.6-0.5,0.9c-1.4-0.4-2.7-0.8-4.9-1.5C395.1,169.8,396,169.2,397,168.5z M381.9,79.9
		c1.1,0.1,2.2,0.2,3.6,0.3c-0.2,1.1-0.3,2-0.6,4c-1.7-1.6-2.7-2.5-3.7-3.5C381.5,80.5,381.7,80.2,381.9,79.9z M371.7,176.1
		c1.5,0.3,3,0.5,5,0.9c-1.3,1.4-2,2.1-3,3.1c-0.9-1.2-1.6-2.3-2.4-3.3C371.4,176.6,371.6,176.4,371.7,176.1z M365.5,198
		c0.4-0.6,1-1.1,1.4-1.6c2.6,1.1,4.9,2.5,7.4,3.1c2.4,0.6,5.1,0.5,6.5,3.3c-4.4,2.7-6.2,2.4-10.1-0.5c-1.1-0.8-2.7-0.8-4.1-1.2
		c-0.9-0.3-1.7-0.6-2.6-1C364.6,199.5,365,198.7,365.5,198z M365.2,242.2c0,0.6,0.1,1.5-0.1,1.6c-1.2,0.4-2.4,0.6-3.6,0.8
		c-0.1-0.6-0.2-1.2-0.3-1.8C362.5,242.6,363.9,242.4,365.2,242.2z M356.9,454.1c-1.4-0.9-2.4-1.6-3.9-2.6c1-0.4,1.5-0.6,2-0.7
		c0.7-0.1,1.4-0.1,2.5-0.2C357.3,451.8,357.1,452.7,356.9,454.1z M353,288.7c1-0.6,2.1-1.1,3.2-1.7c0.3,0.1,0.6,0.3,0.8,0.4
		c-0.6,1.5-0.8,3.3-1.8,4.3c-1.2,1.1-3.1,1.9-4.7,1.8c-1.7-0.1-2.1-1.6-0.7-2.9C350.9,289.9,352,289.3,353,288.7z M331.6,124.3
		c2.9,2.4,5.1,4.3,7.4,6.3c-0.2,0.3-0.6,0.8-0.6,0.8c0.7,1.2,1.4,2.3,2,3.4c-0.3,0.3-0.6,0.5-1,0.8c-2.9-2.2-5.9-4.3-8.6-6.7
		C330.4,128.3,331.3,126.3,331.6,124.3z M325.1,38.8c-2.5,0.2-4.1,0.4-6,0.5C320.8,35.7,321.6,35.6,325.1,38.8z M320.4,69.4
		c0.6-0.8,1.6-1.2,2.4-1.8c0.1,1,0.5,2,0.3,2.9c-0.3,1.3-1.1,2.4-1.9,3.9c-1.1-0.2-2.3-0.3-3.3-0.5
		C318.9,71.9,319.5,70.5,320.4,69.4z M315.3,113c0.9-0.2,2.3-0.2,2.8,0.3c1.9,1.9,3.5,4,5.2,6c0.9,1.1,1.9,2.1,2.7,3.2
		c0.7,1,1.1,2.1,1.6,3.2c-0.2,0.1-0.4,0.2-0.6,0.3c-4-2.4-8-4.7-12.1-7.2c0.4-0.5,0.9-1.2,1.5-1.9c-1.3-0.8-2.7-1.5-4.1-2.4
		C313.4,113.9,314.3,113.2,315.3,113z M310.2,55.5c0.4,2.3,0.2,4-3,3.7c-0.7-0.1-1.5,0.7-2.3,0.7c-0.9,0.1-1.9-0.2-2.8-0.4
		c0-0.3,0-0.6,0-0.9C304.8,57.6,307.4,56.6,310.2,55.5z M285.2,104.8c1.1-1,2.5-1.8,3.8-2.7c0.2,0.2,0.3,0.5,0.5,0.7
		c-1.1,1.3-2.2,2.5-3.6,4.2C285.6,106.1,285,105,285.2,104.8z M272.6,83.3c1.4-0.5,2.7-0.9,4.1-1.4c0.1,0.4,0.2,0.8,0.4,1.2
		c-2.9,1.4-5.7,2.8-8.9,4.4c-0.5-1.5-1.1-2.8-1.7-4.6c-0.7,0.1-2.1,0.4-3.6,0.6C264.4,80.5,270.1,80.4,272.6,83.3z M256.8,109.3
		c0.9-0.5,1.6-1.2,2.9-2.2c0,1.7,0,3,0,4.7c2.4-0.3,4.6-0.5,7.1-0.8c0.3,1.9,0.6,3.7-2.4,4.2c-1.2,0.2-2.3,1.6-3.1,3.1
		c2-0.8,4-1.7,6-2.6c0.3-0.2,0.5-0.9,0.6-1.3c0.3-1.9,0.6-3.8,1.6-5.7c0.4,0.7,0.7,1.5,1.3,2.6c1.2-3.1,2.7-5.3,5.6-5.3
		c0.9,2.7,1.7,5,2.6,7.6c-2,1.1-3.9,2.3-6.2,0.2c-1.4-1.3-2.6-0.9-3.3,1c-0.7,1.8-1.7,3.5-2.3,4.6c2.3-0.1,5.4-0.3,8.7-0.5
		c0.4,0.9,0.8,2,1.6,3.8c-0.1-2.4,3.4-2.5,1.5-5c0.6-0.3,1.3-0.8,1.9-0.7c1,0.1,2,0.6,2.4,0.7c0.3-1.6,0.3-2.9,0.9-3.7
		c0.9-1.4,2.3-2.4,3.3-3.7c0.7-1,1.1-2.3,1-3.7c1.4-0.5,2.8-1,4.3-1.4c0.6-0.2,1.3,0,1.9,0c-0.1,0.6-0.1,1.4-0.5,1.9
		c-0.8,1-1.8,1.7-2.6,2.6c-0.8,0.8-1.6,1.8-2.6,2.9c1.3,0.8,2.2,1.2,3,1.8c0.7,0.6,2.6,1,0.8,2.4c0,0,0.4,0.8,0.7,1
		c3,2.4,5.8,4.9,9,7c1.4,0.9,3.3,0.9,5.2,1.4c2,4.9,2,4.9-2.1,8.1c1.4,4.1,2.5,4.7,6.4,3.5c4.2-1.2,5.1-0.4,8,2.7
		c2.1,2.2,3.4,5.8,7.8,5.9c2.1,0,4,2.6,6.2,3.7c4.4,2.3,8.7,4.8,13.3,6.5c3.1,1.2,3.5,1.1,1.8,5.4c-0.8-1.4-1.3-2.3-1.9-3.1
		c-0.5-0.7-1.1-1.4-2.2-2.6c0,3,0,4.8,0,6.8c-2.3,0.7-4.5,1.4-7.5,2.4c-0.2,1-0.4,2.9-0.9,4.8c-0.6,2.5-4.1,4-6.3,2.8
		c-4.1-2.3-8.4-3.8-13.1-4.1c-2.5-0.2-5.1-0.9-7.4-1.9c-5.2-2.2-11.7-1-15.8-5.3c-3-3.1-7-4.1-10.2-6.6c-1-0.8-1.8-2-2.7-3
		c-1-1.1-2.1-2.2-3.2-3.3c-0.3,0.3-0.5,0.6-0.8,0.9c0.8,0.5,1.6,0.9,2.4,1.4c-2.9,1.8-5.6,0.5-7.4-3.3c-1.3-0.2-2.6-0.4-3.5-0.5
		c0.1-1.8,0.3-3.2,0.3-4.6c0-0.1-1.5-0.3-1.6-0.2c-0.4,0.9-0.6,1.9-0.9,3.1c-6.2,3.5-12.7,7.2-19.7,0c2.5-0.5,4.9-1,7.4-1.5
		c4.3-1,8.8-1.6,12.2-4.6c0.9-0.8,1.2-2.3,1.5-3.6c0.4-1.7,0.5-3.5,0.8-5.3c0.4-0.2,0.8-0.4,1.2-0.6c-1.1-0.4-2.1-1.1-3.2-1.2
		c-2-0.1-3.7-0.4-4.4-2.7c-0.1-0.5-0.7-1.3-1.1-1.3c-4-0.3-3.7-3.4-4.2-6.1c-0.2-1.1-0.5-2.2-1.1-3.1
		C254.1,113.1,254.1,111,256.8,109.3z M261,342.4c-1.4,1.1-2.6,2.4-4.2,3.2c-0.7,0.3-2-0.4-2.9-0.9c-0.5-0.3-1.1-1-1.1-1.5
		c0.1-0.6,0.7-1.3,1.3-1.5c1.4-0.4,2.8-0.5,4.9-0.9C259.5,341.2,260.3,341.8,261,342.4z M246.2,124.4c2.1-0.3,4.1-3,5.2,0.9
		c0.2,0.5,2.2,0.5,3.5,0.7C252.4,128.7,249.1,128.2,246.2,124.4z M255.1,117.3c0.3,0.2,0.1,2.1-0.2,2.2c-2.7,0.7-5.5,1.2-8.9,1.9
		C247.9,116.6,251.8,115.2,255.1,117.3z M245.3,113c0.9,1,1.8,2.1,2.7,3.1c-0.5,0.3-1.3,1-1.4,0.9c-1-0.9-1.8-1.9-2.7-2.9
		C244.4,113.8,244.9,113.4,245.3,113z M250.4,318c-5.7,1.3-6.6,0.6-6.7-4.5C246,315,248,316.4,250.4,318z M231.9,114.6
		c3,0.1,5.8,0.5,5.3-4.5c1.8,1.8,2.8,2.8,3.8,3.9C237.8,115.1,235.3,118.8,231.9,114.6z M236.7,262.5c-0.2,0.9-0.4,1.7-0.8,3.1
		c-1.1-0.8-1.9-1.4-2.7-1.9c1-0.6,1.9-1.2,2.9-1.8C236.3,262.1,236.5,262.3,236.7,262.5z M231.3,72.9c0.1-1.6,0-3.2,0-4.8
		c0.4,0,0.7-0.1,1.1-0.1c0.3,0.6,0.8,1.2,0.8,1.8c0,2.3,0.5,4.1,3,5.1c0.7,0.3,0.8,2.2,1.2,3.5C231.5,78.8,231.1,78.3,231.3,72.9z
		 M223.9,272.6c-1.2,0.5-2.6,1.7-3.5,1.4c-2.6-0.8-5-2.2-7.5-3.4c0.1-0.4,0.2-0.7,0.3-1.1c1.4,0.1,2.8,0.2,4.2,0.3
		c0.2,0.3,0.3,0.7,0.5,1c0.6-0.8,1.2-1.5,2.2-2.8c0.1,1.6,0.1,2.7,0.2,3.6c0.3,0.2,0.4,0.3,0.4,0.3
		C221.8,272.1,222.9,272.3,223.9,272.6z M217.8,336.8c0.1-0.3,0.1-0.6,0.2-0.9c1.1,0.1,2.8-0.3,3.3,0.3c1.1,1.2,1.7,3,2.2,4.6
		c0.1,0.2-1,0.9-2.1,1.4C223.3,338.1,220,337.9,217.8,336.8z M211.3,272.7c4,0,4,0.1,5.8,5C215.3,276.2,213.5,274.6,211.3,272.7z
		 M215,334.2c-2.3,0.8-4,1.5-5.2,1.9c-0.5-1.7-0.8-2.6-0.9-3.6c-0.1-1.1,0-2.2,0-3.3c0.8,0.5,1.6,1,2.3,1.6
		C212.3,331.7,213.3,332.7,215,334.2z M219.8,149.3c0.8-0.1,1.7,0.4,2.5,0.7c-0.3,0.9-0.5,2-1.1,2.6c-0.8,0.8-2.1,1.2-3.6,2
		C217.4,152.1,216.4,149.7,219.8,149.3z M220.5,61.6c1.2,1.1,1.8,2.9,2.7,4.6c-1.7,1.7-2.7,1.5-4.1-0.5c-1.2-1.8-2.9-3.2-4.6-5.1
		C217.2,59,219.1,60.4,220.5,61.6z M217,66.8c0.2,0,0.2,1.4,0.4,2.2c-2.8-0.5-4.8-0.9-6.9-1.3c0-0.3,0-0.7,0-1
		C212.6,66.7,214.8,66.6,217,66.8z M210.7,53.1c0.2,0.3,0.4,0.6,0.6,0.9c-0.1,1-0.3,2-0.5,3.2c-1.3-0.1-2.6-0.2-3.8-0.3
		c-0.2-0.3-0.3-0.6-0.5-0.8C207.9,55,209.3,54,210.7,53.1z M206.4,110.3c0.3,0.2,0.6,0.5,0.9,0.7c-1.6,2.3-3.3,4.6-5.1,7
		C201,116,203.8,111.4,206.4,110.3z M196.5,91.8c1.2,3.1,1.2,3.1-3.1,4.8C194.6,94.7,195.5,93.3,196.5,91.8z M193.2,121.3
		c-1.7-1-2.5-1.5-4.2-2.5c1.6-0.5,2.7-0.9,3.7-1.2C192.8,118.6,192.9,119.7,193.2,121.3z M187.9,71.1c-2.2,0.2-3.5-1-3.5-2.9
		c0-0.6,2.2-1.2,3.5-1.5c0.5-0.1,1.2,0.3,1.8,0.5c0,0.1,0,0.3,0,0.4c-0.5-0.1-1-0.1-2.6-0.3c1.9,1.6,3,2.7,4.5,3.9
		C190.2,71.1,189.1,71,187.9,71.1z M188.2,9.9c1,0.5,1.9,1.4,2.9,2.1c-0.1,0.3-0.2,0.6-0.3,0.8c-1.3-0.3-2.6-0.5-3.7-1
		c-0.4-0.2-0.5-1.2-0.7-1.8C187,10,187.8,9.7,188.2,9.9z M184.9,40.2c-2.8,0.8-3.9-0.1-4.9-4.4C181.5,37.2,183.1,38.6,184.9,40.2z
		 M171.9,26.9c2.2,2.4,4.4,4.8,6.6,7.3c-0.4,0.3-0.9,0.6-1.3,0.9c-2.1-2.4-4.3-4.9-6.4-7.3C171.2,27.5,171.5,27.2,171.9,26.9z
		 M169.7,72.9c0,0.4-0.1,0.8-0.1,1.2c-1.5,0.7-2.9,1.5-4.4,2.2c-1.8,0.9-3-0.1-3.9-1.5c-0.5-0.7-0.8-2.1-0.4-2.6
		c0.9-1.1,2.3-1.9,3.5-2.8c0.2,0.7,0.4,1.4,0.4,2.2c0,0.3-0.5,0.6-0.7,0.8c0.1,0.3,0.2,0.6,0.2,0.9c0.9-0.2,1.8-0.4,2.7-0.5
		C168,72.8,168.8,72.9,169.7,72.9z M149.8,67C149.8,67,149.9,67,149.8,67c-0.6-1.1-1.3-2.1-2.4-3.7c2.4-0.3,4.1-0.5,6-0.7
		C153.3,65.5,152,66.6,149.8,67C149.9,67,149.9,67,149.8,67C149.9,67,149.9,67,149.8,67c-0.2,0.9-0.4,1.7-0.6,2.6
		c3-2.4,8-2.1,9.3-7.4c2.2,0.3,4.6,0.6,7,0.9c0.1,0.4,0.3,0.7,0.4,1.1c-3.5,2.3-7,4.6-10.7,7.1c-2.3-1-4.8-0.7-6.8,2.4
		c-0.2-3.4-0.2-3.4-4.2-4.2C146.1,68,147.2,65.8,149.8,67L149.8,67L149.8,67z M138.3,52.7c1.5,0.5,3,1.1,4.6,1.6
		c-0.1,0.3-0.1,0.7-0.2,1c-0.7,0.5-1.5,1-2.4,1.6c-0.9-1.3-1.6-2.4-2.4-3.5C138.1,53.2,138.2,53,138.3,52.7z M132,34.5
		c0.3-0.1,0.6-0.1,0.9-0.2c0.6,0.8,1.2,1.6,1.7,2.4c-1,1.2-1.9,2.2-2.7,3.2c-0.3,0-0.7,0-1,0C131.3,38.1,131.6,36.3,132,34.5z
		 M127,45.6c0.3-1,1.2-1.7,1.8-2.6c0.3,0.2,0.5,0.4,0.8,0.7c0.2,1.2,0.5,2.3,0.8,4c-1,0.1-2,0.4-2.7,0.1
		C127.2,47.5,126.8,46.2,127,45.6z M110.7,56.5c2.5,4.4,4.6,8.2,6.7,11.9c0,0,0.1,0,0.1,0.1l0,0c0.1,0.1,0.1,0.2,0.2,0.3
		c0.8,1.2,1.6,2.4,2.5,3.7c0.7-0.5,1.3-0.9,2.1-1.5c0,0.7,0.2,1.3,0,1.4c-0.7,0.5-2.2,1.2-2.3,1.2c-0.9-1.5-1.7-3.2-2.5-4.8
		c-0.1-0.1-0.1-0.2-0.2-0.3c0,0,0-0.1-0.1-0.1C114,66.6,109.9,60.2,110.7,56.5z M95.6,95.3c4.6-1.3,9.8-1.7,13.4-4.3
		c2.6-1.9,4.2-3.6,7.6-2.7c1,0.3,2.4-1,3.7-1.5c2.4-1,4.8-2,7.4-3.1c0.1,1,0.3,1.6,0.4,2.5c1.9-0.4,4.7,0.7,4.4-3.3
		c3,0.8,5-0.1,6.2-3c0.3-0.7,1.8-0.9,3.3-1.6c-0.8,1.4-1.7,2.2-1.6,2.9c0.2,2.9-0.8,4.1-3.8,4.3c-2.4,0.2-3.1,4.1-1.2,5.8
		c1.1,1,2.3,2.1,4.2,3.8c-0.7-2.5-1.1-4.3-1.6-6.3c1.8-0.1,3.8-2.2,4.8,1.3c0.7-0.9,1.5-1.8,2.7-3.4c0.1,3.4,0.4,4.8,3.7,3
		c2.4-1.3,5.8-1,8.8-1.1c1,0,2.2,0.9,2.9,1.6c2,2,3.8,4.3,5.7,6.4c0.3,0.3,0.6,0.6,1,0.7c3.6,0.4,6.5,1.9,9.2,4.5
		c2.3,2.2,5.5,3.4,8.3,5c0.3,0.2,0.6,0.5,0.9,0.8c-3.1,5-11.1,6.8-16.2,5.2c-5.4-1.7-8.5-6.9-13.9-8.3c-0.8-0.2-1.6-0.6-2.3-1
		c-1-0.6-1.9-1.4-3.6-2.6c-1.5,0.2-4.1,0.7-6.5,1.1c0.2,0.3,1,1.2,2.2,2.8c-1.8,0.3-3,0.5-4.2,0.7c-1.4,0.2-2.8,0.5-4.2,0.7
		c-0.7,0.1-1.3,0.4-2,0.4c-4.2-0.3-8.7,0.9-11.8-3.3c-0.9-1.3-2.4-2.2-3.6-3.3c-0.3,0.3-0.6,0.6-0.8,0.9c0.6,0.5,1.1,1,2.3,2
		c-1.6-0.1-2.8,0.1-3.5-0.4c-2.7-1.7-5.3-3.6-7.9-5.4c-2.2-0.2-4.1,0.1-5.8,2.2c-1.7,2.2-9.4,1.9-11.5,0.1c-1.1-0.9-2.4-1.4-4.6-2.5
		C91.1,96.2,93.4,95.9,95.6,95.3z M149.9,326.1C150,326.1,150,326.1,149.9,326.1c-2.6,0.7-5.2,1.4-7.7,2.2c-0.1-2.5,1.1-3.7,3.6-3.6
		c1.3,0.1,2.6-0.4,4.3-0.7C150,324.6,150,325.3,149.9,326.1C150,326,150,326,149.9,326.1L149.9,326.1
		C150,326.1,150,326.1,149.9,326.1c1.3,0.3,2.5,0.7,3.6,1c-1.3,1.5-2.6,2.9-4,4.4C147.1,329.4,149.6,327.8,149.9,326.1
		C150,326.1,150,326.1,149.9,326.1z M153.2,189.6c-1.2-0.7-2.4-1.3-3.5-2c-1.4-0.9-2.7-1.9-3.3-2.3c-1.8-3.3-3.3-6-4.9-8.8
		c2-1.5,3.9-1.6,5.7,0.4c1.5,1.6,3.2,3,4.6,4.6c0.9,1,1.7,2.2,1.9,3.5C153.9,186.4,153.4,188.1,153.2,189.6z M149.4,129
		c7.1-3.5,7.1-3.5,8.3-2.2C154,129.3,150.6,130.2,149.4,129z M162.4,133.3c0.6-0.1,1.3,0.4,2,0.6c-0.5,0.6-0.8,1.4-1.5,1.7
		c-2.2,1.1-4.5,1.2-7.5-0.9C158.3,134.2,160.4,133.6,162.4,133.3z M126,120.2c-0.7,0.2-1.5,0.7-2,0.5c-1.4-0.5-2.8-1.2-4.2-1.9
		c0.1-0.5,0.3-1,0.4-1.5c1.7,0.2,3.4,0.3,5,0.7C125.6,118.2,125.7,119.5,126,120.2z M118.4,119.4c-0.9,0.9-1.6,1.8-2.4,2.6
		c-1.8-0.6-3-4.8-5.1-0.7c-1-0.5-1.9-1-3-1.6C111.5,119.7,114.6,115.3,118.4,119.4z M105,137.2c-4.7-0.3-4.9-0.5-5-3.7
		C102,134.3,104.6,133.7,105,137.2z M96,120.2c-2-0.3-3.5,0-4.3-0.7c-0.5-0.4-0.1-2.1-0.1-3.5C93,117.4,94.1,118.4,96,120.2z
		 M87.6,312.8c-0.4,3.2-0.7,6.4-1.1,9.7c-0.3,0.1-0.7,0.3-1,0.4c-0.6-1.6-1.3-3.2-1.8-4.9c-0.5-1.8-1-3.6-1.2-5.5
		c-0.1-0.9,0.4-1.9,0.7-2.8c0.8,0.4,1.6,0.6,2.3,1.1C86.3,311.4,87,312.2,87.6,312.8z M84.5,246.3c-4.7-5.3-9.2-10.3-13.9-15.6
		C75.3,231.7,82.7,240.2,84.5,246.3z M47.3,116.3c1,0.7,2.2,1.3,2.9,2.3c0.5,0.7,0.5,1.9,0.8,2.8c-0.8,0.2-1.7,0.6-2.3,0.4
		c-0.8-0.4-1.5-1.2-1.8-2c-0.4-0.8-0.2-1.8-0.3-2.7C46.7,116.8,47,116.6,47.3,116.3z M47.8,299.6c-3.9,0.9-3.2,5.6-5.6,9.1
		c-0.2-2.5-0.3-4-0.4-5.5c-0.2,0-0.5,0-0.7,0.1c-0.1,1.5-0.3,3-0.5,5.1c-1.4-1.1-2.6-1.6-3.1-2.5s-0.6-2.2-0.2-3.1
		c0.2-0.5,1.6-0.6,2.4-0.9c0.8-0.3,1.7-0.6,2.3-1.1c0.7-0.7,1.1-1.6,2.1-3.1c-1.6-0.3-3-0.5-4.9-0.8c1.3-0.9,2.5-1.6,3.9-2.6
		c0.5-1.8,1.1-4.4,1.7-6.9c0.3-0.1,0.6-0.2,0.9-0.3c1.4,4.3,3.8,2.3,6.3,1.3c0.4,1,0.8,1.8,1.1,2.4c-2.4,0.8-5.4,1-6.3,2.5
		C46,294.5,47.4,297.2,47.8,299.6z M38.2,196.2c-0.9-1-1.7-2.1-2.6-3.1c0.3-0.3,0.7-0.7,1-1c0.9,0.9,1.8,1.9,2.6,2.9
		C39.3,195.1,38.6,195.8,38.2,196.2z M32.2,189.1c1.3-0.4,2.6-0.8,3.9-1.2c0,0.9,0,1.9,0,2.8c-1.2,0-2.5,0-3.7,0
		C32.3,190.2,32.2,189.7,32.2,189.1z M33.2,296c0.4,0,0.8-0.1,1.2-0.1c0.4,2.3,1.1,4.6,1.2,7c0,0.7-1.5,1.5-2.3,2.2
		c-0.3-0.9-0.8-1.8-0.8-2.7C32.5,300.2,32.9,298.1,33.2,296z M40.6,348.7c-2.3,1-4.7,1.9-8.1,3.2c0.5-2.9,0.8-4.9,1-6.1
		c2.5,0,4.3-0.1,6,0c0.6,0.1,1.5,0.5,1.7,1.1C41.4,347.4,41,348.5,40.6,348.7z M37.7,316.4c1.2-0.4,2.5-0.7,4.2-1.2
		c0.1,1.7,0.2,3.2,0.3,4.6C39.2,320.5,37.6,319.7,37.7,316.4z M47.9,342.6c4.5-1.5,3.4,3.3,5.6,4.1c-0.1,0.4-0.2,0.8-0.3,1.2
		c-2.7-0.3-5.3-0.6-8-0.9C45.1,344.6,45.5,343.4,47.9,342.6z M52.3,371.9c-2-0.2-4-0.3-6.3-0.5c1.4-2.2,2.5-3.9,3.6-5.7
		c-0.1-0.1-0.1-0.1-0.2-0.2c0.3-0.3,0.6-0.7,0.9-1c-0.2,0.4-0.5,0.8-0.7,1.2c1.3,1.1,2.6,2.3,3.8,3.4c0.3-0.2,0.6-0.4,0.9-0.6
		C53.7,369.6,53,370.7,52.3,371.9z M55.7,293.1c-0.2-0.4,0.6-1.3,0.9-2c0.9,0.5,1.9,0.9,2.7,1.6c1.3,1.1,2.5,2.3,3.6,3.5
		c0.6,0.6,0.9,1.5,1.3,2.3c-0.3,0.3-0.7,0.7-1,1c-1-0.9-2-1.9-3.1-2.8c-0.6-0.5-1.5-0.7-2.1-1.2C57.1,294.8,56.2,294,55.7,293.1z
		 M57.6,219.7c3.4,0.1,7.1,4.2,6.9,8.1C61.9,224.9,59.9,222.5,57.6,219.7z M66,342.1c-2.2,0.4-4.3,0.8-7.2,1.4
		c2-2.1,2.2-5.4,5.3-5.3C66,338.2,66.8,340.1,66,342.1z M66.8,189.1c-1.8,1.5-3.1,2.7-4.6,3.9c-2.1,1.7-4,3.6-6.3,4.9
		c-1.3,0.7-4,1.3-4.5,0.7c-1.8-2.3-4.2-1.8-6.4-2.1c-2.1-0.3-3.8-0.3-4.2-3c-0.1-1-1.2-1.8-1.9-2.8c5.9-2.5,10.6,1.7,15.5,2.4
		c1.1-1.4,1.8-2.9,3-3.7c3.4-2.5,6.9-5,10.6-7c4.2-2.3,4.4-2.1,7.1,3.3C72.3,187.7,69.6,189.4,66.8,189.1z M71.3,348.8
		c-0.4-0.2-0.7-0.8-1-1.3c-0.6-1.4-1.2-2.9-1.8-4.4c-0.1-0.3-0.3-0.7-0.4-1c1.2,0.4,3,0.6,3.6,1.4c0.8,1.2,0.7,3,0.9,4.6
		C72.5,348.3,71.5,348.9,71.3,348.8z M71.2,312.1c-0.1-2-0.2-3.6-0.3-5.8C74.5,309,74.5,309.6,71.2,312.1z M74.5,363.1
		c-0.2-0.1-1.5-0.6-1.5-0.8c0.2-1.6,0.5-3.3,1.3-4.7c0.3-0.5,2-0.2,3.2-0.2C76.4,359.5,75.6,360.9,74.5,363.1z M76.5,369.7
		c0.1-2.3-2.7-4,0.2-5.8C79.6,366.3,79.6,367.1,76.5,369.7z M78.3,308.1c-0.9-0.2-1.9-0.6-2.7-1.1c-1.4-0.8-2.7-1.8-4.9-3.3
		c1.6-1.1,2.9-2.1,4.2-3c0-0.2-0.1-0.5-0.1-0.7c-1.6,0-3.2,0-5.1,0c-1.1-2.3,1.3-3.1,2.8-3.2c1.3-0.1,3.7,1.3,3.8,2.2
		c0.5,4,3.2,4.9,6.3,5.8c0.7,0.2,1.7,0.6,1.8,1.1c0.2,0.6-0.2,1.8-0.7,2.1c-0.6,0.4-1.6,0.3-2.5,0.3
		C80.3,308.1,79.3,308.2,78.3,308.1z M83.8,353c-0.7-0.6-1.3-1.2-1.8-1.5c0.8-1.6,1.5-2.9,2.1-4.2C86,347.7,86,347.7,83.8,353z
		 M90,339.9c-2.3-0.6-4.6-1.3-6.9-1.9c0.2-0.7,0.2-1.6,0.7-2c3.5-3,3.5-3,4.3-5.5c0.6,2,1.6,4.7,2.3,7.5
		C90.6,338.6,90.1,339.3,90,339.9z M90.9,324c0.5-1.2,0.9-2.4,1.5-3.5c0.2-0.3,1.1-0.3,1.6-0.4c0,0.5,0.2,1.2-0.1,1.6
		c-0.7,1-1.6,1.9-2.4,2.8C91.3,324.2,91.1,324.1,90.9,324z M92.7,375.1c0.2-3.7,2-5.4,5.1-5.4c0.2,0.3,0.4,0.6,0.5,0.9
		C96.5,372.1,94.6,373.6,92.7,375.1z M98,364.2c-0.8-0.3-2-0.7-3.3-1.2c0.1-3.2,1.5-3.4,7-1.1C100.6,362.6,99.5,363.3,98,364.2z
		 M106.9,203.5c-0.2,0-0.4,0-0.7-0.1c0.1-0.9,0.2-1.9,0.2-2.8c-3.9,0.4-4.4,0-3.5-3.3c1,3.7,4.9,0.2,6.5,2.6
		C108.6,201.2,107.7,202.4,106.9,203.5z M115,141.3c-2-1-3.8-2.3-5.7-3.5c1.8-1.8,3-3.1,4.6-4.7c0.3,0.4,0.7,1,1.1,1.7
		c0.7,1.2,1.4,2.4,1.9,3.7c0.3,0.7,0.5,1.8,0.2,2.2C116.8,141.2,115.6,141.5,115,141.3z M116.1,310.2c1.2,0.1,2.4,0.2,3.6,0.3
		c0,0.7,0,1.4-0.1,2c-1.1,0-2.3,0.1-3.4-0.1C116.1,312.4,116.2,310.9,116.1,310.2z M121.4,359.1c-1,0.5-2,1-3.9,1.9
		c0.2-1.7,0.3-2.9,0.4-4.1c1.2,0.5,2.5,0.9,3.7,1.4C121.6,358.5,121.5,358.8,121.4,359.1z M118.7,260.3c2-0.3,3.5-0.5,5.7-0.9
		C121.1,262.4,120.5,262.5,118.7,260.3z M131.7,161.3c-0.3,0.3-1.5,0.4-1.9,0c-2-1.7-4-3.5-5.8-5.5c-1-1.1-1.5-2.6-2.2-4
		c0.2-0.3,0.4-0.6,0.6-0.8c1.4,0.7,3.1,1.2,4.2,2.3c1.9,1.8,3.6,3.9,5.2,6C132.1,159.7,132.1,160.9,131.7,161.3z M124,137.4
		c4.2-2.6,16.1-2.2,18.1,0C136,137.4,130,137.4,124,137.4z M135.7,168c4,2.2,5.8,4.6,5.1,7C137.7,173.8,136.4,172,135.7,168z
		 M142.5,465.7c0.1,0.7-1.6,1.6-2.2,2.1c0-2.9,0-5.6,0-9C143.9,460.9,142.4,463.5,142.5,465.7z M143.9,372.2
		c-1.6-0.6-3.1-1.6-4.6-2.4c1.9-0.7,3.1-1.4,4.3-1.6c1.1-0.2,2.8-0.3,3.4,0.3c0.6,0.6,0.4,2.4-0.2,3.3
		C146.4,372.3,144.8,372.4,143.9,372.2z M155.7,479.5c-1.3-3.2-5.1,1.5-6.4-2.3c-0.8-2.3-1.9-4.4-3.1-7.1c1.9-0.1,2.8-0.2,3.6-0.2
		c0.6-3.2,0.6-3.2,5.6-2.3c-0.4-0.8-0.7-1.4-1.3-2.4C156.9,467.6,157.7,476.6,155.7,479.5z M156.9,193.3c-0.4,0-0.7-0.1-1.1-0.1
		c-0.1-1-0.2-1.9-0.3-2.9c1.1-0.1,2.1-0.2,3.2-0.3c0.1,0.3,0.2,0.7,0.3,1C158.3,191.7,157.6,192.5,156.9,193.3z M159.7,197.4
		c-0.1-0.1,0-0.4,0-0.6c-0.2-1.3-0.4-2.7-0.6-4c1.1,0.9,2.5,1.7,3.1,2.9c1.4,2.6,2.5,5.4,4.1,8.9
		C161.8,203.3,161.5,199.8,159.7,197.4z M171.5,329.7c-2.4-0.3-5-0.2-4.7-4.2c1.6-0.4,3.2-0.8,4.7-1.2
		C171.5,326.4,171.5,328,171.5,329.7z M169.8,219.6c-1.5-2.5-2.8-5.1-4.3-7.8c2-0.6,3.7-1.2,5.6-1.8c0.7,0.4,1.8,1.1,2.2,1.3
		c0.4,2.5,0.6,4.6,1,7.3c0.1-0.1-0.4,0.4-1,0.9c0.2,0.2,0.4,0.5,0.5,0.4c3.6-1.7,5.2,1.3,6.6,3.4c2.3,3.4,3.7,7.4,6.1,10.8
		c2.9,4.2,6.4,8.1,9.8,12c1.4,1.7,2.6,5.2,1.6,6.8c6.2,3.7,9.7,10.1,8.3,15.6c-0.8-1.2-1.6-2-2-2.9c-2.9-6.4-6.5-12.4-11.3-17.7
		c-3.5-3.8-7.5-7.1-10.8-11.1c-3.2-3.9-5.7-8.3-8.6-12.5C172.3,222.7,170.8,221.3,169.8,219.6z M205,329.3c-0.2,2.4-0.4,4.5-0.6,7.1
		C201.3,332.7,201.4,332,205,329.3z M174.6,326.7c0.1-0.5,1.7-0.5,2.6-0.8c0.2,0.5,0.4,1,0.6,1.4c-0.9,0.9-1.9,1.8-2.8,2.7
		C174.8,328.9,174.4,327.7,174.6,326.7z M176.5,397.2c0-0.4,0-0.9-0.1-1.3c2.1-0.9,4.3-1.8,6.7-2.8c0.1,1.2,0.2,2.3,0.3,3.3
		C180.8,396.6,178.6,396.9,176.5,397.2z M198.2,487.5c0.2-2.8-0.3-5.9,3.8-6.4c0.9-0.1,1.6-1.5,2.4-2.3c0.7-0.6,1.4-1,2.2-1.5
		C205.8,482.8,201.9,485.1,198.2,487.5z M195.5,476.3c2.5-0.2,5-0.3,7.6-0.5C202.8,478.4,199.3,478.8,195.5,476.3z M205.7,472.6
		c-1.2-1.2-2.1-2.1-2.8-2.9c1.3-0.4,3.4-1,5.5-1.7c0.2,0.2,0.3,0.4,0.5,0.6C207.7,470.2,206.5,471.7,205.7,472.6z M213,467.5
		c-0.5,0.2-1.4-0.2-2-0.5c-0.2-0.1-0.2-1.1,0.1-1.3c0.5-0.4,1.2-0.8,1.8-0.8c1.1,0,2.2,0.3,3.7,0.5
		C215.3,466.2,214.2,467.1,213,467.5z M222.4,476.1c-1.5,0.2-3.2-1.2-4.7-2.3c1.6-1.5,4.8,1,4.7-2.7c0-0.6-1-1.2-1.6-1.8
		c-0.4,0.6-0.8,1.2-1.5,2.3c-0.5-0.6-1.1-1.2-1.8-1.9c2-1.6,3.5-2.9,5.8-1c0.7,0.6,2,0.3,3.1,0.4
		C226.7,471.8,224.9,475.7,222.4,476.1z M227.3,385.2c-1-1.1-1.6-2.6-2.3-3.8c-3,0.5-0.5,7.1-5.7,4.5c-3.2,3.5-6.6,6.5-11.4,7.6
		c-0.6,0.1-1.3,0.7-1.7,1.2c-2.4,2.8-4,2.9-5.9,0.9c-5.4,0-9.8,0-14.3,0c-0.7-3.6-0.1-4.3,3.6-4.1c0.9,0.1,1.9-0.5,2.8-0.7
		c0.8-0.2,1.7-0.3,2.5-0.5c1.2-1.8,2.4-3.7,3.4-5.3c2.5,0.4,4.5,0.8,5.5,1c1.6-1.8,2.8-3,3.8-4.3c0.5-0.7,0.6-1.6,1-2.4
		c0.8-1.5,1.4-3.5,2.7-4.1c1.7-0.8,3.1,0.4,3.9,2.4c0.6,1.7,3.9,1.6,6.4,0c0.4-0.3,0.8-0.6,1.6-1.2c0.1,1.2,0.2,2,0.3,3.7
		c1.3-1.5,2.2-2.6,3.1-3.6c-1.1-1.4-3.7-2-0.7-4.2c1.2-0.9,1.2-3.8,1.1-5.7c-0.2-2.5,0.5-4.2,2.7-5.4c3.1-1.7,2.9-5.1,4-7.8
		c0.1-0.3-0.6-1.2-1.1-1.6c-1.1-0.9-2.4-1.7-3.7-2.6c1.8-2.2,2.8-3.5,3.8-4.8c-1.9-1-3.6-2-5.9-3.2c2.6-1.7,4.3-4.3,7.2-1.5
		c-0.3-0.9-0.7-1.7-1.2-3c1,0.2,1.7,0.2,2.2,0.4c2.9,1.1,5.6,1.5,8.6-0.5c2.7-1.8,5.4-1.2,7,2.1c2.3-3.1,5.2-2.8,7.3,1.2
		c-1.9-0.3-3.2-0.5-4.9-0.7c-1.4,2.1-3.6,2.5-6.5,2c-1.3-0.2-2.8,1.3-4.2,2.1c1,1.4,1.9,2.6,2.9,4.1c1,0.2,2.7,0.5,4.4,0.8
		c0.6,0.1,1.6,0.3,1.8,0.1c1.5-2.2,3.5-0.8,5.3-1c2.6-0.3,4.6-0.1,6,2.5c-1.1,3.4-4,0.5-6.3,1.4c-1.1,9.5-8.6,9.1-14.5,9.4
		c-2.1,4-3.8,7.4-6,11.6c2.3-1.3,3.8-2.3,5.3-3.2c0-0.4,0.1-0.7,0.1-1.1c1.3,1,2.7,1.9,3.6,2.6c-1.8,1.8-3.1,3.5-4.7,4.6
		c-3.2,2-3,5.3-3.9,8.2c-0.8,2.7-2.9,4.4-5.9,4C229.3,387.4,228.1,386.2,227.3,385.2z M261,459.5c-0.9,2.3-1.9,4.7-2.8,7
		c-0.4-0.2-0.7-0.4-1.1-0.5C257.7,463.5,257.5,460.6,261,459.5z M247.3,363.2c1.7-2.5,2.7-2.5,6.3,0.3
		C251.1,366.1,249.3,364.1,247.3,363.2z M253,472.3c-1,1.1-2,2.1-3.3,3.5c-0.4-1.5-0.7-2.5-1.1-3.8c1.5-0.2,2.7-0.3,3.9-0.5
		C252.6,471.8,252.8,472,253,472.3z M239.6,470.6c0,0.5,0,1.1,0,1.6c-1.3,0-2.7,0.1-4-0.1c-0.2,0-0.3-1-0.4-1.6
		C236.6,470.6,238.1,470.6,239.6,470.6z M228.9,483.1c1.9,2.6,3.4,4.6,4.9,6.6C231.3,488.5,228.1,487.9,228.9,483.1z M237.8,478.8
		c-4,1.7-6.1,1.3-9.2-3.4c3.6-0.5,7.2-0.9,10.8-1.5c3.9-0.6,4.4-0.3,5.4,4.2c-0.7,0-1.4-0.1-2,0
		C241.1,478.3,239.3,478.2,237.8,478.8z M250.8,490.3c-2.4,1.4-5.3,3.1-8-0.6c1.6,0,2.9,0,4.4,0c0.8-2.9,1.6-5.8,2.4-8.6
		c0.1,0,0.2,0,0.4,0c0,1.9,0,3.8,0,6.2c1.5-0.6,2.4-1.1,3.4-1.5c0.2,0.1,0.4,0.2,0.6,0.3C252.9,487.5,252.2,489.5,250.8,490.3z
		 M256.5,488.4c0.9,1,1.8,1.9,2.7,2.9c-0.6,0.3-1.5,1-1.6,0.8c-0.9-0.8-1.6-1.8-2.3-2.8C255.8,489.1,256.2,488.7,256.5,488.4z"/>
</g>
</svg>
