<?xml version="1.0" encoding="utf-8"?>
<!-- Generator: Adobe Illustrator 19.2.0, SVG Export Plug-In . SVG Version: 6.00 Build 0)  -->
<!DOCTYPE svg PUBLIC "-//W3C//DTD SVG 1.1//EN" "http://www.w3.org/Graphics/SVG/1.1/DTD/svg11.dtd">
<svg version="1.1" id="Layer_1" xmlns="http://www.w3.org/2000/svg" xmlns:xlink="http://www.w3.org/1999/xlink" x="0px" y="0px"
	 viewBox="0 0 500 500" style="enable-background:new 0 0 500 500;" xml:space="preserve">
<metadata><?xpacket begin="﻿" id="W5M0MpCehiHzreSzNTczkc9d"?>
<x:xmpmeta xmlns:x="adobe:ns:meta/" x:xmptk="Adobe XMP Core 5.6-c111 79.158366, 2015/09/25-01:12:00        ">
   <rdf:RDF xmlns:rdf="http://www.w3.org/1999/02/22-rdf-syntax-ns#">
      <rdf:Description rdf:about=""/>
   </rdf:RDF>
</x:xmpmeta>
                                                                                                    
                                                                                                    
                                                                                                    
                                                                                                    
                                                                                                    
                                                                                                    
                                                                                                    
                                                                                                    
                                                                                                    
                                                                                                    
                                                                                                    
                                                                                                    
                                                                                                    
                                                                                                    
                                                                                                    
                                                                                                    
                                                                                                    
                                                                                                    
                                                                                                    
                                                                                                    
                           
<?xpacket end="w"?></metadata>
<style type="text/css">
	.st0{fill:#D1D3D4;}
	.st1{fill:none;stroke:#FFFFFF;stroke-width:3;stroke-linecap:round;stroke-miterlimit:10;}
	.st2{fill:none;stroke:#000000;stroke-width:3;stroke-linecap:round;stroke-miterlimit:10;}
</style>
<g>
	<path class="st0" d="M250,90c-88.4,0-160,71.6-160,160s71.6,160,160,160s160-71.6,160-160S338.4,90,250,90z M250,370
		c-66.3,0-120-53.7-120-120s53.7-120,120-120s120,53.7,120,120S316.3,370,250,370z"/>
	<line class="st1" x1="250" y1="95" x2="250" y2="101"/>
	<line class="st2" x1="233.8" y1="95.8" x2="234.4" y2="101.8"/>
	<line class="st2" x1="217.8" y1="98.4" x2="219" y2="104.3"/>
	<line class="st2" x1="202.1" y1="102.6" x2="204" y2="108.3"/>
	<line class="st2" x1="187" y1="108.4" x2="189.4" y2="113.9"/>
	<line class="st2" x1="172.5" y1="115.8" x2="175.5" y2="121"/>
	<line class="st2" x1="158.9" y1="124.6" x2="162.4" y2="129.5"/>
	<line class="st2" x1="146.3" y1="134.8" x2="150.3" y2="139.3"/>
	<line class="st2" x1="134.8" y1="146.3" x2="139.3" y2="150.3"/>
	<line class="st2" x1="124.6" y1="158.9" x2="129.5" y2="162.4"/>
	<line class="st2" x1="115.8" y1="172.5" x2="121" y2="175.5"/>
	<line class="st2" x1="108.4" y1="187" x2="113.9" y2="189.4"/>
	<line class="st2" x1="102.6" y1="202.1" x2="108.3" y2="204"/>
	<line class="st2" x1="98.4" y1="217.8" x2="104.3" y2="219"/>
	<line class="st2" x1="95.8" y1="233.8" x2="101.8" y2="234.4"/>
	<line class="st2" x1="95" y1="250" x2="101" y2="250"/>
	<line class="st2" x1="95.8" y1="266.2" x2="101.8" y2="265.6"/>
	<line class="st2" x1="98.4" y1="282.2" x2="104.3" y2="281"/>
	<line class="st2" x1="102.6" y1="297.9" x2="108.3" y2="296"/>
	<line class="st2" x1="108.4" y1="313" x2="113.9" y2="310.6"/>
	<line class="st2" x1="115.8" y1="327.5" x2="121" y2="324.5"/>
	<line class="st2" x1="124.6" y1="341.1" x2="129.5" y2="337.6"/>
	<line class="st2" x1="134.8" y1="353.7" x2="139.3" y2="349.7"/>
	<line class="st2" x1="146.3" y1="365.2" x2="150.3" y2="360.7"/>
	<line class="st2" x1="158.9" y1="375.4" x2="162.4" y2="370.5"/>
	<line class="st2" x1="172.5" y1="384.2" x2="175.5" y2="379"/>
	<line class="st2" x1="187" y1="391.6" x2="189.4" y2="386.1"/>
	<line class="st2" x1="202.1" y1="397.4" x2="204" y2="391.7"/>
	<line class="st2" x1="217.8" y1="401.6" x2="219" y2="395.7"/>
	<line class="st2" x1="233.8" y1="404.2" x2="234.4" y2="398.2"/>
	<line class="st2" x1="250" y1="405" x2="250" y2="399"/>
	<line class="st2" x1="266.2" y1="404.2" x2="265.6" y2="398.2"/>
	<line class="st2" x1="282.2" y1="401.6" x2="281" y2="395.7"/>
	<line class="st2" x1="297.9" y1="397.4" x2="296" y2="391.7"/>
	<line class="st2" x1="313" y1="391.6" x2="310.6" y2="386.1"/>
	<line class="st2" x1="327.5" y1="384.2" x2="324.5" y2="379"/>
	<line class="st2" x1="341.1" y1="375.4" x2="337.6" y2="370.5"/>
	<line class="st2" x1="353.7" y1="365.2" x2="349.7" y2="360.7"/>
	<line class="st2" x1="365.2" y1="353.7" x2="360.7" y2="349.7"/>
	<line class="st2" x1="375.4" y1="341.1" x2="370.5" y2="337.6"/>
	<line class="st2" x1="384.2" y1="327.5" x2="379" y2="324.5"/>
	<line class="st2" x1="391.6" y1="313" x2="386.1" y2="310.6"/>
	<line class="st2" x1="397.4" y1="297.9" x2="391.7" y2="296"/>
	<line class="st2" x1="401.6" y1="282.2" x2="395.7" y2="281"/>
	<line class="st2" x1="404.2" y1="266.2" x2="398.2" y2="265.6"/>
	<line class="st2" x1="405" y1="250" x2="399" y2="250"/>
	<line class="st2" x1="404.2" y1="233.8" x2="398.2" y2="234.4"/>
	<line class="st2" x1="401.6" y1="217.8" x2="395.7" y2="219"/>
	<line class="st2" x1="397.4" y1="202.1" x2="391.7" y2="204"/>
	<line class="st2" x1="391.6" y1="187" x2="386.1" y2="189.4"/>
	<line class="st2" x1="384.2" y1="172.5" x2="379" y2="175.5"/>
	<line class="st2" x1="375.4" y1="158.9" x2="370.5" y2="162.4"/>
	<line class="st2" x1="365.2" y1="146.3" x2="360.7" y2="150.3"/>
	<line class="st2" x1="353.7" y1="134.8" x2="349.7" y2="139.3"/>
	<line class="st2" x1="341.1" y1="124.6" x2="337.6" y2="129.5"/>
	<line class="st2" x1="327.5" y1="115.8" x2="324.5" y2="121"/>
	<line class="st2" x1="313" y1="108.4" x2="310.6" y2="113.9"/>
	<line class="st2" x1="297.9" y1="102.6" x2="296" y2="108.3"/>
	<line class="st2" x1="282.2" y1="98.4" x2="281" y2="104.3"/>
	<line class="st2" x1="266.2" y1="95.8" x2="265.6" y2="101.8"/>
</g>
</svg>
