<?xml version="1.0" encoding="utf-8"?>
<!-- Generator: Adobe Illustrator 19.2.0, SVG Export Plug-In . SVG Version: 6.00 Build 0)  -->
<!DOCTYPE svg PUBLIC "-//W3C//DTD SVG 1.1//EN" "http://www.w3.org/Graphics/SVG/1.1/DTD/svg11.dtd">
<svg version="1.1" id="Layer_1" xmlns="http://www.w3.org/2000/svg" xmlns:xlink="http://www.w3.org/1999/xlink" x="0px" y="0px"
	 viewBox="0 0 500 500" style="enable-background:new 0 0 500 500;" xml:space="preserve">
<metadata><?xpacket begin="﻿" id="W5M0MpCehiHzreSzNTczkc9d"?>
<x:xmpmeta xmlns:x="adobe:ns:meta/" x:xmptk="Adobe XMP Core 5.6-c111 79.158366, 2015/09/25-01:12:00        ">
   <rdf:RDF xmlns:rdf="http://www.w3.org/1999/02/22-rdf-syntax-ns#">
      <rdf:Description rdf:about=""/>
   </rdf:RDF>
</x:xmpmeta>
                                                                                                    
                                                                                                    
                                                                                                    
                                                                                                    
                                                                                                    
                                                                                                    
                                                                                                    
                                                                                                    
                                                                                                    
                                                                                                    
                                                                                                    
                                                                                                    
                                                                                                    
                                                                                                    
                                                                                                    
                                                                                                    
                                                                                                    
                                                                                                    
                                                                                                    
                                                                                                    
                           
<?xpacket end="w"?></metadata>
<style type="text/css">
	.st0{fill:#9B9DA0;}
	.st1{fill:none;stroke:#FFFFFF;stroke-width:2;stroke-linecap:round;stroke-miterlimit:10;}
	.st2{fill:none;stroke:#000000;stroke-width:2;stroke-linecap:round;stroke-miterlimit:10;}
</style>
<g>
	<path class="st0" d="M250,50C139.5,50,50,139.5,50,250s89.5,200,200,200s200-89.5,200-200S360.5,50,250,50z M250,370
		c-66.3,0-120-53.7-120-120s53.7-120,120-120s120,53.7,120,120S316.3,370,250,370z"/>
	<line class="st1" x1="250" y1="55.5" x2="250" y2="73"/>
	<line class="st2" x1="229.7" y1="56.6" x2="231.5" y2="74"/>
	<line class="st2" x1="209.6" y1="59.8" x2="213.2" y2="76.9"/>
	<line class="st2" x1="189.9" y1="65" x2="195.3" y2="81.7"/>
	<line class="st2" x1="170.9" y1="72.3" x2="178" y2="88.3"/>
	<line class="st2" x1="152.8" y1="81.6" x2="161.5" y2="96.7"/>
	<line class="st2" x1="135.7" y1="92.6" x2="146" y2="106.8"/>
	<line class="st2" x1="119.9" y1="105.5" x2="131.6" y2="118.5"/>
	<line class="st2" x1="105.5" y1="119.9" x2="118.5" y2="131.6"/>
	<line class="st2" x1="92.6" y1="135.7" x2="106.8" y2="146"/>
	<line class="st2" x1="81.6" y1="152.8" x2="96.7" y2="161.5"/>
	<line class="st2" x1="72.3" y1="170.9" x2="88.3" y2="178"/>
	<line class="st2" x1="65" y1="189.9" x2="81.7" y2="195.3"/>
	<line class="st2" x1="59.8" y1="209.6" x2="76.9" y2="213.2"/>
	<line class="st2" x1="56.6" y1="229.7" x2="74" y2="231.5"/>
	<line class="st2" x1="55.5" y1="250" x2="73" y2="250"/>
	<line class="st2" x1="56.6" y1="270.3" x2="74" y2="268.5"/>
	<line class="st2" x1="59.8" y1="290.4" x2="76.9" y2="286.8"/>
	<line class="st2" x1="65" y1="310.1" x2="81.7" y2="304.7"/>
	<line class="st2" x1="72.3" y1="329.1" x2="88.3" y2="322"/>
	<line class="st2" x1="81.6" y1="347.2" x2="96.7" y2="338.5"/>
	<line class="st2" x1="92.6" y1="364.3" x2="106.8" y2="354"/>
	<line class="st2" x1="105.5" y1="380.1" x2="118.5" y2="368.4"/>
	<line class="st2" x1="119.9" y1="394.5" x2="131.6" y2="381.5"/>
	<line class="st2" x1="135.7" y1="407.4" x2="146" y2="393.2"/>
	<line class="st2" x1="152.8" y1="418.4" x2="161.5" y2="403.3"/>
	<line class="st2" x1="170.9" y1="427.7" x2="178" y2="411.7"/>
	<line class="st2" x1="189.9" y1="435" x2="195.3" y2="418.3"/>
	<line class="st2" x1="209.6" y1="440.2" x2="213.2" y2="423.1"/>
	<line class="st2" x1="229.7" y1="443.4" x2="231.5" y2="426"/>
	<line class="st2" x1="250" y1="444.5" x2="250" y2="427"/>
	<line class="st2" x1="270.3" y1="443.4" x2="268.5" y2="426"/>
	<line class="st2" x1="290.4" y1="440.2" x2="286.8" y2="423.1"/>
	<line class="st2" x1="310.1" y1="435" x2="304.7" y2="418.3"/>
	<line class="st2" x1="329.1" y1="427.7" x2="322" y2="411.7"/>
	<line class="st2" x1="347.2" y1="418.4" x2="338.5" y2="403.3"/>
	<line class="st2" x1="364.3" y1="407.4" x2="354" y2="393.2"/>
	<line class="st2" x1="380.1" y1="394.5" x2="368.4" y2="381.5"/>
	<line class="st2" x1="394.5" y1="380.1" x2="381.5" y2="368.4"/>
	<line class="st2" x1="407.4" y1="364.3" x2="393.2" y2="354"/>
	<line class="st2" x1="418.4" y1="347.2" x2="403.3" y2="338.5"/>
	<line class="st2" x1="427.7" y1="329.1" x2="411.7" y2="322"/>
	<line class="st2" x1="435" y1="310.1" x2="418.3" y2="304.7"/>
	<line class="st2" x1="440.2" y1="290.4" x2="423.1" y2="286.8"/>
	<line class="st2" x1="443.4" y1="270.3" x2="426" y2="268.5"/>
	<line class="st2" x1="444.5" y1="250" x2="427" y2="250"/>
	<line class="st2" x1="443.4" y1="229.7" x2="426" y2="231.5"/>
	<line class="st2" x1="440.2" y1="209.6" x2="423.1" y2="213.2"/>
	<line class="st2" x1="435" y1="189.9" x2="418.3" y2="195.3"/>
	<line class="st2" x1="427.7" y1="170.9" x2="411.7" y2="178"/>
	<line class="st2" x1="418.4" y1="152.8" x2="403.3" y2="161.5"/>
	<line class="st2" x1="407.4" y1="135.7" x2="393.2" y2="146"/>
	<line class="st2" x1="394.5" y1="119.9" x2="381.5" y2="131.6"/>
	<line class="st2" x1="380.1" y1="105.5" x2="368.4" y2="118.5"/>
	<line class="st2" x1="364.3" y1="92.6" x2="354" y2="106.8"/>
	<line class="st2" x1="347.2" y1="81.6" x2="338.5" y2="96.7"/>
	<line class="st2" x1="329.1" y1="72.3" x2="322" y2="88.3"/>
	<line class="st2" x1="310.1" y1="65" x2="304.7" y2="81.7"/>
	<line class="st2" x1="290.4" y1="59.8" x2="286.8" y2="76.9"/>
	<line class="st2" x1="270.3" y1="56.6" x2="268.5" y2="74"/>
</g>
</svg>
